<svg xmlns="http://www.w3.org/2000/svg" viewBox="0 0 721.2 506.5"><g id="Layer_2" data-name="Layer 2"><g id="Layer_2-2" data-name="Layer 2"><g id="bb"><g id="Group_13" data-name="Group 13"><path id="Path_89" data-name="Path 89" d="M23.63,42.21a5.41,5.41,0,0,1-1,2.28,10.14,10.14,0,0,1-1.53,1.33,10.85,10.85,0,0,1-2.45,1.24,6.61,6.61,0,0,1-3.15.23l-8.1-1.12a3.39,3.39,0,0,0-.9,0,5.81,5.81,0,0,1-.72,0,5.89,5.89,0,0,0-1.56.29,3.23,3.23,0,0,0-1.44.78L0,42.71a3.94,3.94,0,0,1,.92-.81,10.56,10.56,0,0,1,1-.49,10.5,10.5,0,0,1,3.57-.95,14.06,14.06,0,0,1,1.59,0,11,11,0,0,0,1.62-.06c1,.17,2.07.34,3.11.49s2.12.28,3.18.43A5.29,5.29,0,0,0,17.28,41c.21-.12.55-.33,1-.64A6,6,0,0,0,19.68,39a23.75,23.75,0,0,1-3.12-.57c-1-.29-2-.59-2.8-.9l3-7.44A22,22,0,0,1,13.62,28a6.32,6.32,0,0,1-1.41-1.84,8.28,8.28,0,0,1-1-2.57,11.88,11.88,0,0,1-.18-2.22,11.54,11.54,0,0,1,.81-3.81,8.56,8.56,0,0,1,3-3.75c1.21-.93,2.4-1.88,3.55-2.86a31.83,31.83,0,0,0,3.43-3.44A3.66,3.66,0,0,1,19.71,4,3.89,3.89,0,0,1,23.57.06h.06A3.76,3.76,0,0,1,26.4,1.22,3.74,3.74,0,0,1,27.55,4a3.69,3.69,0,0,1-2.13,3.49,33.07,33.07,0,0,0,3.37,3.43q1.74,1.47,3.61,2.86a8.41,8.41,0,0,1,2.94,3.75,11.83,11.83,0,0,1,.84,3.81,15,15,0,0,1-.2,2.22,8.18,8.18,0,0,1-.93,2.57A7.05,7.05,0,0,1,33.58,28,20,20,0,0,1,30.5,30l3,7.44c-.85.31-1.8.61-2.86.9a24.62,24.62,0,0,1-3.06.58,5.63,5.63,0,0,0,1.36,1.35c.33.23.68.44,1,.64a5.22,5.22,0,0,0,2.34.34l3.12-.43c1.06-.15,2.11-.32,3.17-.49a10.18,10.18,0,0,0,1.56.06,14.92,14.92,0,0,1,1.64,0,11.1,11.1,0,0,1,3.58.95c.35.17.66.34.93.49a3.68,3.68,0,0,1,.95.81l-2.83,4.58A3.28,3.28,0,0,0,43,46.51a5.45,5.45,0,0,0-1.5-.28,5.12,5.12,0,0,1-.78-.06,3.17,3.17,0,0,0-.87,0l-8.08,1.12a6.94,6.94,0,0,1-3.23-.23,7.1,7.1,0,0,1-2.42-1.3c-.64-.51-1.15-1-1.53-1.32a5,5,0,0,1-.92-2.23"/></g></g><g id="bk"><g id="Group_14" data-name="Group 14"><path id="Path_95" data-name="Path 95" d="M144.65,39.28l-1-5.39s0,0-.08-.12a2.49,2.49,0,0,0-.84-.51,8,8,0,0,1-1.56-1.16c-.84-.71-1.51-1.29-2-1.73A11.58,11.58,0,0,1,138,28.93a10.82,10.82,0,0,1-2-5.86c-.19-2.21.7-4.42,2.68-6.61a9.9,9.9,0,0,1,8.11-3.09,19,19,0,0,1,4.47.93L153,15c.6.21,1.19.43,1.76.66a6.56,6.56,0,0,1,.81.47,5.47,5.47,0,0,1,5.31-6.67,5.17,5.17,0,0,1,3.84,1.62,5.18,5.18,0,0,1,1.59,3.8,8.27,8.27,0,0,1-.12,1.22,5.93,5.93,0,0,1,.78-.43c.88-.39,2-.84,3.49-1.36a17.56,17.56,0,0,1,4.47-1A9.65,9.65,0,0,1,183,16.43q2.91,3.3,2.72,6.61a11,11,0,0,1-2,5.86,11.31,11.31,0,0,1-1.29,1.47c-.48.44-1.13,1-1.94,1.7a9.28,9.28,0,0,1-1.61,1.16,1.88,1.88,0,0,0-.78.52l-.06.08a.09.09,0,0,0,0,.06l-.92,5.43,1.9,7.12c-1,.87-3.12,1.58-6.46,2.14a71.54,71.54,0,0,1-11.6.83,71.33,71.33,0,0,1-11.77-.86c-3.38-.6-5.51-1.34-6.37-2.22l1.9-7"/><path id="Path_100" data-name="Path 100" d="M161.86,9.36h-2.05V5.58h-2.39a.85.85,0,0,1-1-.71,1,1,0,0,1,0-.24v0a.85.85,0,0,1,.73-.95h2.64V1.2a.9.9,0,0,1,.78-1,.76.76,0,0,1,.26,0,.89.89,0,0,1,1,.76,1,1,0,0,1,0,.25V3.65h2.48a.84.84,0,0,1,.95.72.45.45,0,0,1,0,.23v0a.83.83,0,0,1-.71,1,.49.49,0,0,1-.24,0l-2.45,0,0,3.75"/></g></g><g id="bn"><g id="Group_15" data-name="Group 15"><path id="Path_105" data-name="Path 105" d="M298.59,5.41A20.6,20.6,0,0,1,307,7.75,22,22,0,0,1,313.57,13a29.77,29.77,0,0,1,3.57,5.43,33.2,33.2,0,0,1,2.72,6.72,42.42,42.42,0,0,1,1.44,8.68q.31,4.53.32,8.4v6.29H286.13c-.18,0-.26-.47-.26-1.41a11.86,11.86,0,0,1,.75-4.25,19.6,19.6,0,0,1,1.44-3.08,12.9,12.9,0,0,1,2.19-2.69q1.74-1.79,4-4.12a9.18,9.18,0,0,0,2-3.35,8.82,8.82,0,0,0,.64-3.66,10.12,10.12,0,0,1-2.34,1.41q-6.12,2.19-8.85,6.35a26.67,26.67,0,0,0-1.3,2.34,7,7,0,0,1-1,1.5,2.33,2.33,0,0,1-1.59.6,2.58,2.58,0,0,1-2.51-1.55,6.61,6.61,0,0,1-2.17.28,6.75,6.75,0,0,1-2.33-1.29,7.56,7.56,0,0,1-1.94-3,11.33,11.33,0,0,1-.43-3.17q0-2.43,3-6.4,3.53-4.59,3.75-7a15.19,15.19,0,0,1,.21-2.34,4.71,4.71,0,0,1,.72-1.73l.49-.78a6.26,6.26,0,0,1,.49-.66,3.6,3.6,0,0,1,.43-.52l.43-.52q.31-.37.81-.87A21,21,0,0,1,281.54,0a23,23,0,0,1,9.64,6.43,9.73,9.73,0,0,1,3.75-5.28,11.47,11.47,0,0,1,3.66,4.28"/></g></g><g id="bp"><g id="Group_16" data-name="Group 16"><path id="Path_112" data-name="Path 112" d="M428.13,47.34H412.54a16.71,16.71,0,0,1,9.67-21.67,8.22,8.22,0,0,1-3.35-2.86,7.82,7.82,0,0,1-1.27-4.36,7.63,7.63,0,0,1,2-5.25,7.73,7.73,0,0,1,5-2.56A5.56,5.56,0,0,1,422.24,6a5.67,5.67,0,0,1,1.7-4.15,5.89,5.89,0,0,1,8.32,0l0,0A5.68,5.68,0,0,1,434,6a5.57,5.57,0,0,1-2.34,4.65,7.68,7.68,0,0,1,5,2.56,7.83,7.83,0,0,1,.7,9.61A8.2,8.2,0,0,1,434,25.67a16.75,16.75,0,0,1,7.79,6.06,16.17,16.17,0,0,1,3,9.58,16.63,16.63,0,0,1-1.13,6H428.12"/></g></g><g id="bq"><g id="Group_17" data-name="Group 17"><path id="Path_113" data-name="Path 113" d="M587.07,12.6a3.86,3.86,0,0,1-2.8-1.13,3.8,3.8,0,0,1-1.15-2.8,3.77,3.77,0,0,1,1.15-2.77,3.88,3.88,0,0,1,5.47-.1.94.94,0,0,0,.1.1A3.77,3.77,0,0,1,591,8.67a3.9,3.9,0,0,1-3.86,3.93h-.06"/><path id="Path_114" data-name="Path 114" d="M541.54,12.6a3.84,3.84,0,0,1-3.92-3.77V8.67a3.82,3.82,0,0,1,1.13-2.77,3.9,3.9,0,0,1,5.51-.08l.08.08a3.82,3.82,0,0,1,1.16,2.77,3.77,3.77,0,0,1-1.16,2.8,3.86,3.86,0,0,1-2.8,1.13"/><path id="Path_115" data-name="Path 115" d="M576.44,9.43a3.84,3.84,0,0,1-3.92-3.77V5.5a3.94,3.94,0,0,1,6.72-2.77A3.82,3.82,0,0,1,580.4,5.5a3.91,3.91,0,0,1-4,3.93"/><path id="Path_116" data-name="Path 116" d="M552.17,9.43a3.89,3.89,0,0,1-3.95-3.93,3.94,3.94,0,0,1,3.95-3.92,3.75,3.75,0,0,1,2.77,1.15,3.77,3.77,0,0,1,1.15,2.77,3.89,3.89,0,0,1-3.85,3.93h-.07"/><path id="Path_120" data-name="Path 120" d="M564.31,8a3.8,3.8,0,0,1-2.8-1.15A3.89,3.89,0,0,1,560.38,4,3.9,3.9,0,0,1,564.24.1h.07a3.82,3.82,0,0,1,2.77,1.16A3.75,3.75,0,0,1,568.26,4a3.77,3.77,0,0,1-1.18,2.8A3.81,3.81,0,0,1,564.31,8"/><path id="Path_117" data-name="Path 117" d="M582.05,46.58q-1.41,1.24-6.35,2.08a69.78,69.78,0,0,1-11.37.84,67.3,67.3,0,0,1-11.51-.87c-3.31-.57-5.39-1.29-6.26-2.16l1.82-6.93L547.57,35,545,30.6l-2.45-18L544,12.1l7.91,13.33.17-15.86,2-.35,6,16L563.3,8h2l3.23,17.11,6-15.9,2,.35.17,15.86,7.94-13.36,1.36.64-2.4,17.86L581,35l-.81,4.59,1.88,7"/></g></g><g id="br"><g id="Group_18" data-name="Group 18"><path id="Path_122" data-name="Path 122" d="M705.48,4h4.9V.09h7.91V10.91l-6.4,4.94V29.64l4.9,4.9v5.92h4.41v6.89H681.82V40.46h4.42V34.54l4.93-4.9V15.85l-6.4-4.94V.09h7.87V4h4.94V.09h7.91V4"/></g></g><g id="bb-2" data-name="bb"><g id="Group_13-2" data-name="Group 13"><path id="Path_89-2" data-name="Path 89" d="M697.57,194.55a5.54,5.54,0,0,0,1,2.28,10.07,10.07,0,0,0,1.52,1.32,10.52,10.52,0,0,0,2.46,1.24,6.44,6.44,0,0,0,3.14.24l8.11-1.13a3.32,3.32,0,0,1,.89,0,4.37,4.37,0,0,0,.72.06,5.52,5.52,0,0,1,1.56.29,3.26,3.26,0,0,1,1.45.78L721.2,195a4,4,0,0,0-.92-.81c-.27-.15-.59-.32-.95-.49a10.85,10.85,0,0,0-3.58-1,14.06,14.06,0,0,0-1.59,0,10.79,10.79,0,0,1-1.61-.06c-1,.18-2.08.34-3.12.49l-3.17.43a5.18,5.18,0,0,1-2.34-.34c-.21-.12-.55-.33-1-.64a5.9,5.9,0,0,1-1.38-1.35,23.34,23.34,0,0,0,3.11-.58c1.06-.29,2-.59,2.8-.89l-3-7.45a21.09,21.09,0,0,0,3.14-2.08,6.06,6.06,0,0,0,1.42-1.84,8.54,8.54,0,0,0,1-2.57,11.8,11.8,0,0,0,.17-2.22,11.29,11.29,0,0,0-.81-3.81,8.54,8.54,0,0,0-3-3.75c-1.21-.92-2.39-1.88-3.55-2.86a32.67,32.67,0,0,1-3.43-3.43,3.64,3.64,0,0,0,2.13-3.49,3.9,3.9,0,0,0-3.86-3.93h-.06a3.94,3.94,0,0,0-3.92,3.93,3.71,3.71,0,0,0,2.14,3.49,31.29,31.29,0,0,1-3.38,3.43c-1.15,1-2.36,1.94-3.61,2.86a8.41,8.41,0,0,0-2.94,3.75,12.17,12.17,0,0,0-.84,3.81,13.68,13.68,0,0,0,.21,2.22,8.15,8.15,0,0,0,.92,2.57,7.1,7.1,0,0,0,1.47,1.85,20.07,20.07,0,0,0,3.09,2.07l-3,7.45c.84.31,1.8.6,2.86.89a24.13,24.13,0,0,0,3,.58,5.81,5.81,0,0,1-1.35,1.36,11.06,11.06,0,0,1-1,.63,5.32,5.32,0,0,1-2.34.35c-1-.16-2.08-.3-3.11-.44s-2.12-.31-3.18-.49a10.13,10.13,0,0,1-1.56.06,15,15,0,0,0-1.64,0,11.36,11.36,0,0,0-3.58,1l-.92.49a3.89,3.89,0,0,0-.95.81l2.82,4.59a3.26,3.26,0,0,1,1.48-.78,5.05,5.05,0,0,1,1.5-.29,4.9,4.9,0,0,0,.77-.06,3.17,3.17,0,0,1,.87,0l8.08,1.13a6.93,6.93,0,0,0,3.23-.23,7.41,7.41,0,0,0,2.43-1.3c.63-.52,1.14-1,1.52-1.33a4.9,4.9,0,0,0,.92-2.22"/></g></g><g id="bk-2" data-name="bk"><g id="Group_14-2" data-name="Group 14"><path id="Path_95-2" data-name="Path 95" d="M576.55,191.62l1-5.4s0,0,.09-.11a2.33,2.33,0,0,1,.83-.52,7.71,7.71,0,0,0,1.56-1.16c.85-.71,1.51-1.28,2-1.73a10.23,10.23,0,0,0,1.27-1.44,10.82,10.82,0,0,0,2-5.86c.2-2.21-.7-4.41-2.68-6.6a9.83,9.83,0,0,0-8.11-3.09,19.52,19.52,0,0,0-4.47.92l-1.7.69c-.6.21-1.18.44-1.76.67a6.48,6.48,0,0,0-.81.46,5.39,5.39,0,0,0-1.44-5,5.47,5.47,0,0,0-3.87-1.62,5.46,5.46,0,0,0-5.42,5.43,9.89,9.89,0,0,0,.11,1.21,5.93,5.93,0,0,0-.78-.43c-.88-.39-2-.84-3.49-1.36a17.47,17.47,0,0,0-4.47-.95,9.69,9.69,0,0,0-8.08,3.09q-2.91,3.28-2.71,6.61a11,11,0,0,0,2,5.85,10.68,10.68,0,0,0,1.3,1.47c.48.45,1.12,1,1.93,1.71a9.7,9.7,0,0,0,1.62,1.15,2.14,2.14,0,0,1,.78.52.41.41,0,0,0,.05.09.05.05,0,0,1,0,.05l.93,5.43-1.91,7.12c1,.87,3.12,1.58,6.47,2.14a72.48,72.48,0,0,0,11.59.84,70.27,70.27,0,0,0,11.77-.87c3.39-.6,5.51-1.34,6.38-2.22l-1.91-7"/><path id="Path_100-2" data-name="Path 100" d="M559.34,161.7h2v-3.78h2.4a.86.86,0,0,0,1-.71.65.65,0,0,0,0-.24v0a.86.86,0,0,0-.74-1,.65.65,0,0,0-.24,0h-2.4v-2.46a.89.89,0,0,0-.78-1,1.13,1.13,0,0,0-.26,0,.9.9,0,0,0-1,.76,1,1,0,0,0,0,.25V156h-2.48a.84.84,0,0,0-1,.71,1,1,0,0,0,0,.24v0a.84.84,0,0,0,.71.95,1,1,0,0,0,.24,0l2.45,0,0,3.75"/></g></g><g id="bn-2" data-name="bn"><g id="Group_15-2" data-name="Group 15"><path id="Path_105-2" data-name="Path 105" d="M422.62,157.74a20.56,20.56,0,0,0-8.4,2.34,22.06,22.06,0,0,0-6.58,5.25,30,30,0,0,0-3.58,5.43,34,34,0,0,0-2.71,6.72,42,42,0,0,0-1.45,8.68q-.31,4.53-.31,8.4v6.29h35.49c.17,0,.26-.47.26-1.41a12,12,0,0,0-.75-4.24,19.76,19.76,0,0,0-1.45-3.09,12.53,12.53,0,0,0-2.19-2.68l-4-4.13a9,9,0,0,1-2-3.35,8.82,8.82,0,0,1-.64-3.66,9.78,9.78,0,0,0,2.34,1.41q6.12,2.2,8.86,6.35c.13.18.57.95,1.3,2.34a6.15,6.15,0,0,0,1,1.5,2.37,2.37,0,0,0,1.59.61,2.6,2.6,0,0,0,2.51-1.56,6.59,6.59,0,0,0,2.16.29,7,7,0,0,0,2.34-1.3,7.43,7.43,0,0,0,1.93-2.94,11,11,0,0,0,.43-3.18c0-1.61-1-3.75-3-6.4-2.35-3.06-3.6-5.38-3.75-7a15.4,15.4,0,0,0-.2-2.34,5,5,0,0,0-.72-1.73c-.25-.38-.42-.64-.49-.78a8.05,8.05,0,0,0-.49-.66c-.14-.18-.28-.36-.43-.52s-.26-.31-.44-.52a11.74,11.74,0,0,0-.81-.86,21.26,21.26,0,0,0,1.25-8.69,23.06,23.06,0,0,0-9.64,6.44,9.75,9.75,0,0,0-3.75-5.28,11.46,11.46,0,0,0-3.67,4.27"/></g></g><g id="bp-2" data-name="bp"><g id="Group_16-2" data-name="Group 16"><path id="Path_112-2" data-name="Path 112" d="M293.08,199.67h15.58A16.71,16.71,0,0,0,299,178a8.19,8.19,0,0,0,3.34-2.86,7.73,7.73,0,0,0,1.27-4.35,7.5,7.5,0,0,0-2-5.25,7.69,7.69,0,0,0-5-2.57,5.56,5.56,0,0,0,2.34-4.65,5.75,5.75,0,0,0-1.71-4.15,5.88,5.88,0,0,0-8.32,0h0a5.62,5.62,0,0,0-1.73,4.15,5.51,5.51,0,0,0,2.33,4.65,7.87,7.87,0,0,0-5.65,12.17A8.07,8.07,0,0,0,287.2,178a16.7,16.7,0,0,0-7.79,6.06,16.05,16.05,0,0,0-3,9.58,16.79,16.79,0,0,0,1.12,6h15.59"/></g></g><g id="bq-2" data-name="bq"><g id="Group_17-2" data-name="Group 17"><path id="Path_113-2" data-name="Path 113" d="M134.14,164.93a3.88,3.88,0,0,0,2.79-1.12,3.92,3.92,0,0,0,0-5.57,3.86,3.86,0,0,0-5.47-.1l-.09.1a3.75,3.75,0,0,0-1.16,2.77,3.89,3.89,0,0,0,3.86,3.92h.07"/><path id="Path_114-2" data-name="Path 114" d="M179.66,164.93a3.84,3.84,0,0,0,3.92-3.76V161a3.82,3.82,0,0,0-1.12-2.77,3.9,3.9,0,0,0-5.52-.08l-.08.08a3.74,3.74,0,0,0-1.15,2.77,3.84,3.84,0,0,0,1.15,2.8,3.89,3.89,0,0,0,2.8,1.12"/><path id="Path_115-2" data-name="Path 115" d="M144.76,161.76a3.86,3.86,0,0,0,3.93-3.76v-.17a3.95,3.95,0,0,0-6.73-2.77,3.95,3.95,0,0,0,0,5.57,3.86,3.86,0,0,0,2.8,1.13"/><path id="Path_116-2" data-name="Path 116" d="M169,161.76a3.86,3.86,0,0,0,2.8-1.13,3.77,3.77,0,0,0,1.16-2.8,3.94,3.94,0,0,0-4-3.92,3.93,3.93,0,0,0-3.92,3.92,3.9,3.9,0,0,0,3.86,3.93H169"/><path id="Path_120-2" data-name="Path 120" d="M156.9,160.31a3.88,3.88,0,0,0,3.92-3.95,3.88,3.88,0,0,0-3.86-3.92h-.06a4,4,0,0,0-4,3.92,3.8,3.8,0,0,0,1.19,2.8,3.74,3.74,0,0,0,2.77,1.15"/><path id="Path_117-2" data-name="Path 117" d="M139.15,198.92c.94.82,3.06,1.52,6.35,2.07a77.41,77.41,0,0,0,22.88,0q5-.87,6.26-2.17l-1.81-6.92.8-4.54,2.54-4.41,2.46-18-1.42-.54-7.91,13.33-.17-15.87-2-.35-6,16-3.23-17.17h-2l-3.24,17.11-6-15.9-2,.35-.17,15.87-7.94-13.36-1.35.63,2.39,17.86,2.57,4.41.81,4.59-1.87,7"/></g></g><g id="br-2" data-name="br"><g id="Group_18-2" data-name="Group 18"><path id="Path_122-2" data-name="Path 122" d="M15.73,156.38H10.82v-4H2.92v10.82l6.4,4.94V182l-4.91,4.91v5.91H0v6.89H39.38v-6.89H35v-5.91L30,182V168.18l6.41-4.94V152.42H28.56v4H23.63v-4H15.72v4"/></g></g><g id="bb-3" data-name="bb"><g id="Group_13-3" data-name="Group 13"><path id="Path_89-3" data-name="Path 89" d="M23.63,346.88a5.41,5.41,0,0,1-1,2.28,10.73,10.73,0,0,1-1.53,1.33,11.28,11.28,0,0,1-2.45,1.24,6.61,6.61,0,0,1-3.15.23l-8.1-1.13a4.51,4.51,0,0,0-.9,0,4.37,4.37,0,0,1-.72.06,5.52,5.52,0,0,0-1.56.29A3.23,3.23,0,0,0,2.8,352L0,347.37a4.46,4.46,0,0,1,.92-.81c.27-.15.59-.31,1-.49a10.73,10.73,0,0,1,3.57-.95,14.06,14.06,0,0,1,1.59,0,12.53,12.53,0,0,0,1.62,0l3.11.49c1.06.13,2.12.28,3.18.43a5.3,5.3,0,0,0,2.33-.35c.21-.11.55-.33,1-.63a6.4,6.4,0,0,0,1.39-1.36,22.24,22.24,0,0,1-3.12-.58,28.34,28.34,0,0,1-2.8-.89l3-7.44a22.88,22.88,0,0,1-3.15-2.08,6.23,6.23,0,0,1-1.41-1.85,8.1,8.1,0,0,1-1-2.57,10.59,10.59,0,0,1,.63-6,8.61,8.61,0,0,1,3-3.75c1.21-.92,2.4-1.87,3.55-2.86a30.86,30.86,0,0,0,3.43-3.43,3.66,3.66,0,0,1-2.13-3.49,3.88,3.88,0,0,1,3.86-3.92h.06a3.93,3.93,0,0,1,3.92,3.92,3.68,3.68,0,0,1-2.13,3.49,32.2,32.2,0,0,0,3.37,3.44q1.74,1.47,3.61,2.85a8.5,8.5,0,0,1,2.94,3.76,11.83,11.83,0,0,1,.84,3.8,15.15,15.15,0,0,1-.2,2.23,8,8,0,0,1-.93,2.56,6.94,6.94,0,0,1-1.47,1.85,20.79,20.79,0,0,1-3.08,2.08l3,7.44c-.85.31-1.8.61-2.86.9a24.59,24.59,0,0,1-3.06.57A5.49,5.49,0,0,0,28.94,345a10.91,10.91,0,0,0,1,.63,5.37,5.37,0,0,0,2.34.35c1-.15,2.08-.3,3.12-.43L38.6,345a11.63,11.63,0,0,0,1.56.06c.55,0,1.1,0,1.64,0a11.12,11.12,0,0,1,3.58,1c.35.17.66.33.93.49a3.5,3.5,0,0,1,.95.81L44.43,352a3.28,3.28,0,0,0-1.47-.78,5.46,5.46,0,0,0-1.5-.29,6.81,6.81,0,0,1-.78-.05,3.17,3.17,0,0,0-.87,0L31.73,352a6.94,6.94,0,0,1-3.23-.23,7.28,7.28,0,0,1-2.42-1.3c-.64-.52-1.15-1-1.53-1.33a5,5,0,0,1-.92-2.22"/></g></g><g id="bk-3" data-name="bk"><g id="Group_14-3" data-name="Group 14"><path id="Path_95-3" data-name="Path 95" d="M144.65,344l-1-5.39s0,0-.08-.12a2.37,2.37,0,0,0-.84-.52,8.38,8.38,0,0,1-1.56-1.15c-.84-.71-1.51-1.29-2-1.73a11.67,11.67,0,0,1-1.27-1.45,10.78,10.78,0,0,1-2-5.85q-.28-3.33,2.68-6.61a9.87,9.87,0,0,1,8.11-3.09,19.52,19.52,0,0,1,4.47.92l1.7.7c.6.21,1.19.43,1.76.66a8,8,0,0,1,.81.46,5.37,5.37,0,0,1,1.45-5,5.43,5.43,0,0,1,3.86-1.61,5.46,5.46,0,0,1,5.43,5.42,8.13,8.13,0,0,1-.12,1.21,7.37,7.37,0,0,1,.78-.43c.88-.38,2-.83,3.49-1.35a17.16,17.16,0,0,1,4.47-1A9.68,9.68,0,0,1,183,321.1c1.94,2.19,2.85,4.4,2.72,6.61a11.06,11.06,0,0,1-2,5.86A12.81,12.81,0,0,1,182.4,335c-.48.44-1.13,1-1.94,1.7a8.73,8.73,0,0,1-1.61,1.15,2,2,0,0,0-.78.52l-.06.09a.09.09,0,0,0,0,.06l-.92,5.42,1.9,7.13c-1,.86-3.12,1.58-6.46,2.13a80.28,80.28,0,0,1-23.37,0c-3.38-.59-5.51-1.33-6.37-2.22l1.9-7"/><path id="Path_100-3" data-name="Path 100" d="M161.86,314h-2.05v-3.78h-2.39a.85.85,0,0,1-1-.71,1,1,0,0,1,0-.24v0a.86.86,0,0,1,.73-1,1,1,0,0,1,.25,0h2.39v-2.45a.92.92,0,0,1,.78-1,.75.75,0,0,1,.26,0,.88.88,0,0,1,1,.75,1.13,1.13,0,0,1,0,.26v2.45h2.48a.83.83,0,0,1,.95.71.49.49,0,0,1,0,.24v0a.83.83,0,0,1-.71.95h-.24l-2.45,0,0,3.75"/></g></g><g id="bn-3" data-name="bn"><g id="Group_15-3" data-name="Group 15"><path id="Path_105-3" data-name="Path 105" d="M298.59,310.08a20.44,20.44,0,0,1,8.4,2.34,22,22,0,0,1,6.58,5.25,30,30,0,0,1,3.57,5.42,33.44,33.44,0,0,1,2.72,6.72,42.63,42.63,0,0,1,1.44,8.69q.31,4.53.32,8.4v6.29H286.13c-.18,0-.26-.48-.26-1.42a11.81,11.81,0,0,1,.75-4.24,19.71,19.71,0,0,1,1.44-3.09,12.84,12.84,0,0,1,2.19-2.68q1.74-1.78,4-4.13a9.06,9.06,0,0,0,2-3.34,8.87,8.87,0,0,0,.64-3.67,9.82,9.82,0,0,1-2.34,1.42q-6.12,2.19-8.85,6.35c-.14.17-.57.95-1.3,2.33a6.8,6.8,0,0,1-1,1.5,2.34,2.34,0,0,1-1.59.61,2.57,2.57,0,0,1-2.51-1.56,6.36,6.36,0,0,1-2.17.29,7,7,0,0,1-2.33-1.3,7.45,7.45,0,0,1-1.94-2.94,11.33,11.33,0,0,1-.43-3.17c0-1.62,1-3.75,3-6.41q3.53-4.58,3.75-7a15.17,15.17,0,0,1,.21-2.33,4.71,4.71,0,0,1,.72-1.73l.49-.78a7.63,7.63,0,0,1,.49-.67,5.15,5.15,0,0,1,.43-.52c.11-.13.26-.3.43-.52a11.74,11.74,0,0,1,.81-.86,21,21,0,0,1-1.24-8.68,22.94,22.94,0,0,1,9.64,6.43,9.7,9.7,0,0,1,3.75-5.28,11.52,11.52,0,0,1,3.66,4.27"/></g></g><g id="bp-3" data-name="bp"><g id="Group_16-3" data-name="Group 16"><path id="Path_112-3" data-name="Path 112" d="M428.13,352H412.54a16.55,16.55,0,0,1,1.88-15.61,16.75,16.75,0,0,1,7.79-6.05,8.22,8.22,0,0,1-3.35-2.86,7.84,7.84,0,0,1-1.27-4.36,7.61,7.61,0,0,1,2-5.25,7.79,7.79,0,0,1,5-2.57,5.53,5.53,0,0,1-2.33-4.64,5.71,5.71,0,0,1,1.7-4.16,5.89,5.89,0,0,1,8.32,0h0a5.7,5.7,0,0,1,1.73,4.16,5.54,5.54,0,0,1-2.34,4.64,7.74,7.74,0,0,1,5,2.57,7.83,7.83,0,0,1,.7,9.61,8.35,8.35,0,0,1-3.32,2.86,16.8,16.8,0,0,1,7.79,6.05,16.21,16.21,0,0,1,3,9.58,16.59,16.59,0,0,1-1.13,6H428.12"/></g></g><g id="bq-3" data-name="bq"><g id="Group_17-3" data-name="Group 17"><path id="Path_113-3" data-name="Path 113" d="M587.07,317.26a3.88,3.88,0,0,1-4-3.92,3.75,3.75,0,0,1,1.15-2.77,3.87,3.87,0,0,1,5.47-.1l.1.1a3.75,3.75,0,0,1,1.15,2.77,3.88,3.88,0,0,1-3.86,3.92h-.06"/><path id="Path_114-3" data-name="Path 114" d="M541.54,317.26a3.84,3.84,0,0,1-3.92-3.76v-.16a3.79,3.79,0,0,1,1.13-2.77,3.89,3.89,0,0,1,5.51-.08l.08.08a3.92,3.92,0,0,1,0,5.57,3.85,3.85,0,0,1-2.8,1.12"/><path id="Path_115-3" data-name="Path 115" d="M576.44,314.09a3.84,3.84,0,0,1-3.92-3.76v-.16a3.93,3.93,0,0,1,6.72-2.77,3.78,3.78,0,0,1,1.16,2.77,3.89,3.89,0,0,1-4,3.92"/><path id="Path_116-3" data-name="Path 116" d="M552.17,314.09a3.88,3.88,0,0,1-3.95-3.92,4,4,0,0,1,3.95-3.93,3.8,3.8,0,0,1,2.77,1.16,3.74,3.74,0,0,1,1.15,2.77,3.89,3.89,0,0,1-3.85,3.92h-.07"/><path id="Path_120-3" data-name="Path 120" d="M564.31,312.65a3.81,3.81,0,0,1-2.8-1.16,4,4,0,0,1,2.73-6.72h.07a3.92,3.92,0,0,1,2.77,6.72,3.82,3.82,0,0,1-2.77,1.16"/><path id="Path_117-3" data-name="Path 117" d="M582.05,351.25q-1.41,1.25-6.35,2.08a77.87,77.87,0,0,1-22.88,0c-3.31-.58-5.39-1.3-6.26-2.17l1.82-6.92-.81-4.53L545,335.26l-2.45-17.94,1.41-.55,7.91,13.33.17-15.87,2-.34,6,15.95,3.23-17.17h2l3.23,17.11,6-15.89,2,.34.17,15.87,7.94-13.36,1.36.64-2.4,17.85L581,339.65l-.81,4.58,1.88,7"/></g></g><g id="br-3" data-name="br"><g id="Group_18-3" data-name="Group 18"><path id="Path_122-3" data-name="Path 122" d="M705.48,308.71h4.9v-3.95h7.91v10.82l-6.4,4.93V334.3l4.9,4.91v5.91h4.41V352H681.82v-6.9h4.42v-5.91l4.93-4.91V320.51l-6.4-4.93V304.76h7.87v3.95h4.94v-3.95h7.91v3.95"/></g></g><g id="bb-4" data-name="bb"><g id="Group_13-4" data-name="Group 13"><path id="Path_89-4" data-name="Path 89" d="M697.57,499.21a5.42,5.42,0,0,0,1,2.28,9.6,9.6,0,0,0,1.52,1.33,10.92,10.92,0,0,0,2.46,1.24,6.55,6.55,0,0,0,3.14.23l8.11-1.12a3.32,3.32,0,0,1,.89,0,5.81,5.81,0,0,0,.72.05,5.89,5.89,0,0,1,1.56.29,3.26,3.26,0,0,1,1.45.78l2.79-4.58a3.75,3.75,0,0,0-.92-.81c-.27-.16-.59-.32-.95-.49a10.61,10.61,0,0,0-3.58-1,14.06,14.06,0,0,0-1.59,0,10.79,10.79,0,0,1-1.61-.06c-1,.17-2.08.34-3.12.49s-2.11.28-3.17.43a5.32,5.32,0,0,1-2.34-.34c-.21-.12-.55-.33-1-.64a5.75,5.75,0,0,1-1.38-1.36,23.31,23.31,0,0,0,3.11-.57c1.06-.29,2-.59,2.8-.9l-3-7.44a21.9,21.9,0,0,0,3.14-2.08,6.18,6.18,0,0,0,1.42-1.84,8.54,8.54,0,0,0,1-2.57,11.86,11.86,0,0,0,.17-2.22,11.29,11.29,0,0,0-.81-3.81,8.49,8.49,0,0,0-3-3.75q-1.82-1.39-3.55-2.86a32.76,32.76,0,0,1-3.43-3.44,3.64,3.64,0,0,0,2.13-3.49,3.89,3.89,0,0,0-3.86-3.92h-.06a3.94,3.94,0,0,0-3.92,3.93,3.72,3.72,0,0,0,2.14,3.49,33.16,33.16,0,0,1-3.38,3.43c-1.15,1-2.36,1.93-3.61,2.86a8.41,8.41,0,0,0-2.94,3.75,12.1,12.1,0,0,0-.84,3.81,13.79,13.79,0,0,0,.21,2.22,8.15,8.15,0,0,0,.92,2.57,7.05,7.05,0,0,0,1.47,1.84,20.13,20.13,0,0,0,3.09,2.08l-3,7.44c.84.31,1.8.61,2.86.9a24.13,24.13,0,0,0,3,.58,5.77,5.77,0,0,1-1.35,1.35c-.34.23-.68.44-1,.64a5.18,5.18,0,0,1-2.34.34l-3.11-.43c-1.06-.15-2.12-.32-3.18-.49a10.13,10.13,0,0,1-1.56.06,15,15,0,0,0-1.64,0,11.1,11.1,0,0,0-3.58,1c-.34.17-.65.34-.92.49a3.68,3.68,0,0,0-.95.81l2.82,4.58a3.36,3.36,0,0,1,1.48-.78,5.38,5.38,0,0,1,1.5-.28,4.9,4.9,0,0,0,.77-.06,3.17,3.17,0,0,1,.87,0l8.08,1.12a6.93,6.93,0,0,0,3.23-.23,7.05,7.05,0,0,0,2.43-1.3c.63-.51,1.14-1,1.52-1.32a4.93,4.93,0,0,0,.92-2.23"/></g></g><g id="bk-4" data-name="bk"><g id="Group_14-4" data-name="Group 14"><path id="Path_95-4" data-name="Path 95" d="M576.55,496.28l1-5.39s0,0,.09-.12a2.45,2.45,0,0,1,.83-.51A7.71,7.71,0,0,0,580,489.1c.85-.71,1.51-1.29,2-1.73a10.25,10.25,0,0,0,3.23-7.3c.2-2.21-.7-4.42-2.68-6.61a9.89,9.89,0,0,0-8.11-3.09,19,19,0,0,0-4.47.93l-1.7.69c-.6.21-1.18.43-1.76.66a6.56,6.56,0,0,0-.81.47,5.46,5.46,0,0,0-5.31-6.67,5.46,5.46,0,0,0-5.42,5.42,9.88,9.88,0,0,0,.11,1.22,5.93,5.93,0,0,0-.78-.43c-.88-.39-2-.84-3.49-1.36a17.47,17.47,0,0,0-4.47-.95,9.66,9.66,0,0,0-8.08,3.08q-2.91,3.3-2.71,6.61a11,11,0,0,0,2,5.86,10.68,10.68,0,0,0,1.3,1.47c.48.44,1.12,1,1.93,1.7a9.76,9.76,0,0,0,1.62,1.16,2,2,0,0,1,.78.52.22.22,0,0,0,.05.08.09.09,0,0,1,0,.06l.93,5.43-1.91,7.12c1,.87,3.12,1.58,6.47,2.14a81.15,81.15,0,0,0,23.36,0c3.39-.6,5.51-1.34,6.38-2.22l-1.91-7"/><path id="Path_100-4" data-name="Path 100" d="M559.34,466.36h2v-3.78h2.4a.84.84,0,0,0,1-.71.65.65,0,0,0,0-.24v0a.85.85,0,0,0-.74-1h-2.64V458.2a.89.89,0,0,0-.78-1,.76.76,0,0,0-.26,0,.9.9,0,0,0-1,.76,1,1,0,0,0,0,.25v2.45h-2.48a.85.85,0,0,0-1,.72.88.88,0,0,0,0,.23v0a.83.83,0,0,0,.71.95.49.49,0,0,0,.24,0l2.45,0,0,3.75"/></g></g><g id="bn-4" data-name="bn"><g id="Group_15-4" data-name="Group 15"><path id="Path_105-4" data-name="Path 105" d="M422.62,462.41a20.56,20.56,0,0,0-8.4,2.34,21.9,21.9,0,0,0-6.58,5.25,29.31,29.31,0,0,0-3.58,5.43,33.76,33.76,0,0,0-2.71,6.72,41.77,41.77,0,0,0-1.45,8.68q-.31,4.53-.31,8.4v6.29h35.49c.17,0,.26-.47.26-1.41a12.09,12.09,0,0,0-.75-4.25,19.65,19.65,0,0,0-1.45-3.08,12.59,12.59,0,0,0-2.19-2.69L427,490a9.07,9.07,0,0,1-2-3.35,8.82,8.82,0,0,1-.64-3.66,10.12,10.12,0,0,0,2.34,1.41q6.12,2.19,8.86,6.35c.13.17.57.95,1.3,2.34a6.35,6.35,0,0,0,1,1.5,2.32,2.32,0,0,0,1.59.6,2.58,2.58,0,0,0,2.51-1.55,6.58,6.58,0,0,0,2.16.28,6.8,6.8,0,0,0,2.34-1.29,7.53,7.53,0,0,0,1.93-3,11,11,0,0,0,.43-3.17q0-2.43-3-6.4-3.53-4.59-3.75-7a15.18,15.18,0,0,0-.2-2.34,4.89,4.89,0,0,0-.72-1.73c-.25-.39-.42-.65-.49-.78a8.05,8.05,0,0,0-.49-.66,5.66,5.66,0,0,0-.43-.52l-.44-.52q-.32-.37-.81-.87a21.18,21.18,0,0,0,1.25-8.68,23,23,0,0,0-9.64,6.43,9.78,9.78,0,0,0-3.75-5.28,11.5,11.5,0,0,0-3.67,4.28"/></g></g><g id="bp-4" data-name="bp"><g id="Group_16-4" data-name="Group 16"><path id="Path_112-4" data-name="Path 112" d="M293.08,504.34h15.58A16.71,16.71,0,0,0,299,482.67a8.19,8.19,0,0,0,3.34-2.86,7.74,7.74,0,0,0,1.27-4.36,7.53,7.53,0,0,0-2-5.25,7.68,7.68,0,0,0-5-2.56A5.57,5.57,0,0,0,299,463a5.72,5.72,0,0,0-1.71-4.15,5.89,5.89,0,0,0-8.32,0v0A5.6,5.6,0,0,0,287.2,463a5.53,5.53,0,0,0,2.33,4.65,7.73,7.73,0,0,0-5,2.56,7.83,7.83,0,0,0-.69,9.61,8.07,8.07,0,0,0,3.32,2.86,16.7,16.7,0,0,0-7.79,6.06,16,16,0,0,0-3,9.58,16.83,16.83,0,0,0,1.12,6h15.59"/></g></g><g id="bq-4" data-name="bq"><g id="Group_17-4" data-name="Group 17"><path id="Path_113-4" data-name="Path 113" d="M134.14,469.6a3.85,3.85,0,0,0,2.79-1.13,3.77,3.77,0,0,0,1.16-2.8,3.82,3.82,0,0,0-1.16-2.77,3.88,3.88,0,0,0-5.47-.1l-.09.1a3.78,3.78,0,0,0-1.16,2.77,3.9,3.9,0,0,0,3.86,3.93h.07"/><path id="Path_114-4" data-name="Path 114" d="M179.66,469.6a3.84,3.84,0,0,0,3.92-3.77v-.16a3.85,3.85,0,0,0-1.12-2.77,3.91,3.91,0,0,0-5.52-.08l-.08.08a3.95,3.95,0,0,0,0,5.57,3.86,3.86,0,0,0,2.8,1.13"/><path id="Path_115-4" data-name="Path 115" d="M144.76,466.43a3.86,3.86,0,0,0,3.93-3.77v-.16a3.95,3.95,0,0,0-6.73-2.77,3.77,3.77,0,0,0-1.15,2.77,3.89,3.89,0,0,0,3.95,3.93"/><path id="Path_116-4" data-name="Path 116" d="M169,466.43a3.86,3.86,0,0,0,2.8-1.13,3.79,3.79,0,0,0,1.16-2.8,3.94,3.94,0,0,0-4-3.92,3.77,3.77,0,0,0-2.77,1.15,3.81,3.81,0,0,0-1.15,2.77,3.9,3.9,0,0,0,3.86,3.93H169"/><path id="Path_120-4" data-name="Path 120" d="M156.9,465a3.84,3.84,0,0,0,2.8-1.15A4,4,0,0,0,157,457.1h-.06a3.78,3.78,0,0,0-2.77,1.16,3.72,3.72,0,0,0-1.19,2.77,3.82,3.82,0,0,0,1.19,2.8A3.77,3.77,0,0,0,156.9,465"/><path id="Path_117-4" data-name="Path 117" d="M139.15,503.58q1.41,1.25,6.35,2.08a69.78,69.78,0,0,0,11.37.84,67.15,67.15,0,0,0,11.51-.87q5-.86,6.26-2.16l-1.81-6.93.8-4.53,2.54-4.41,2.46-18-1.42-.55-7.91,13.33-.17-15.86-2-.35-6,15.95L157.91,465h-2l-3.24,17.11-6-15.9-2,.35-.17,15.86-7.94-13.36-1.35.64,2.39,17.86,2.57,4.41.81,4.59-1.87,7"/></g></g><g id="br-4" data-name="br"><g id="Group_18-4" data-name="Group 18"><path id="Path_122-4" data-name="Path 122" d="M15.73,461H10.82v-4H2.92v10.82l6.4,4.94v13.79l-4.91,4.9v5.92H0v6.89H39.38v-6.89H35v-5.92L30,486.64V472.85l6.41-4.94V457.09H28.56v4H23.63v-4H15.72v4"/></g></g></g></g></svg>