<svg id="Group_21" data-name="Group 21" xmlns="http://www.w3.org/2000/svg" xmlns:xlink="http://www.w3.org/1999/xlink" width="32.497" height="41.82" viewBox="0 0 32.497 41.82">
  <defs>
    <linearGradient id="linear-gradient" x1="0.5" x2="0.5" y2="1" gradientUnits="objectBoundingBox">
      <stop offset="0" stop-color="#050505"/>
      <stop offset="1" stop-color="#585858"/>
    </linearGradient>
    <linearGradient id="linear-gradient-2" x1="0.5" x2="0.5" y2="1" gradientUnits="objectBoundingBox">
      <stop offset="0" stop-color="#fff"/>
      <stop offset="1" stop-color="#b0b0b0"/>
      <stop offset="1" stop-color="#aaa"/>
    </linearGradient>
  </defs>
  <g id="bp" transform="translate(0)">
    <g id="Group_16" data-name="Group 16">
      <path id="Path_112" data-name="Path 112" d="M-1516.323,483.012h11.612a14.482,14.482,0,0,0-1.4-12.693,12.682,12.682,0,0,0-5.8-4.926,6.255,6.255,0,0,0,2.492-2.325,6.737,6.737,0,0,0,.946-3.542,6.469,6.469,0,0,0-1.5-4.269,5.617,5.617,0,0,0-3.7-2.088,4.646,4.646,0,0,0,1.741-3.777,4.878,4.878,0,0,0-1.268-3.378,4.133,4.133,0,0,0-6.2-.011l-.01.011a4.826,4.826,0,0,0-1.29,3.378,4.65,4.65,0,0,0,1.742,3.777,5.618,5.618,0,0,0-3.7,2.088,6.818,6.818,0,0,0-.516,7.813,6.281,6.281,0,0,0,2.472,2.325,12.681,12.681,0,0,0-5.8,4.926,13.909,13.909,0,0,0-2.258,7.789,14.591,14.591,0,0,0,.838,4.9h11.614" transform="translate(1528.767 -444.606)" fill="url(#linear-gradient)"/>
    </g>
  </g>
  <g id="wp" transform="translate(7.546 3.366)">
    <path id="Path_148" data-name="Path 148" d="M1277.545,242.5h-11.627a14.5,14.5,0,0,1,1.4-12.709,12.7,12.7,0,0,1,5.811-4.932,6.256,6.256,0,0,1-2.5-2.328,6.743,6.743,0,0,1-.947-3.547,6.47,6.47,0,0,1,1.507-4.275,5.624,5.624,0,0,1,3.7-2.091,4.651,4.651,0,0,1-1.744-3.782,4.6,4.6,0,0,1,4.378-4.791,4.207,4.207,0,0,1,3.114,1.409,4.83,4.83,0,0,1,1.292,3.381,4.654,4.654,0,0,1-1.744,3.782,5.625,5.625,0,0,1,3.7,2.091,6.828,6.828,0,0,1,.516,7.822,6.3,6.3,0,0,1-2.475,2.328,12.7,12.7,0,0,1,5.811,4.932,13.933,13.933,0,0,1,2.261,7.8,14.622,14.622,0,0,1-.84,4.91h-11.63" transform="translate(-1265.057 -204.048)"/>
    <path id="Path_149" data-name="Path 149" d="M1279.724,243.153h10.569a13,13,0,0,0,.452-3.337,12.417,12.417,0,0,0-1.873-6.7,11.429,11.429,0,0,0-4.777-4.425q-1.421-.118-1.421-1.7a1.961,1.961,0,0,1,1.442-1.846,4.883,4.883,0,0,0,2-4.071,4.731,4.731,0,0,0-3.832-4.779q-1.292-.118-1.291-1.609a1.881,1.881,0,0,1,.474-1.231,3.261,3.261,0,0,0,1.162-2.6,3.081,3.081,0,0,0-2.918-3.219,2.8,2.8,0,0,0-2.076.947,3.5,3.5,0,0,0,.323,4.876,1.77,1.77,0,0,1,.474,1.231q0,1.491-1.27,1.609a4.677,4.677,0,0,0-3.832,4.779,4.877,4.877,0,0,0,2,4.071,1.991,1.991,0,0,1,1.443,1.846q0,1.586-1.443,1.7a11.416,11.416,0,0,0-4.777,4.425,12.517,12.517,0,0,0-1.851,6.7,12.1,12.1,0,0,0,.452,3.337h10.569" transform="translate(-1267.236 -206.188)" fill="url(#linear-gradient-2)"/>
  </g>
</svg>
