<svg xmlns="http://www.w3.org/2000/svg" viewBox="0 0 431.99 431.98">
  <defs>
    <style>
      .cls-1 {
        fill: #ebedf0;
      }
    </style>
  </defs>
  <g id="Layer_2" data-name="Layer 2">
    <g id="bb">
      <g id="Group_13" data-name="Group 13">
        <path id="Path_89" data-name="Path 89" class="cls-1" d="M38.12,43.55a2.54,2.54,0,0,1-.06,1.13,6.41,6.41,0,0,1-.45.81,5.69,5.69,0,0,1-.86.91,3,3,0,0,1-1.31.59l-3.64.78a1.4,1.4,0,0,0-.39.14,1.36,1.36,0,0,1-.3.13,3,3,0,0,0-.62.37A1.4,1.4,0,0,0,30,49l-1.92-1.53a2.34,2.34,0,0,1,.27-.49l.34-.36a5,5,0,0,1,1.38-1,5.46,5.46,0,0,1,.67-.26,5.11,5.11,0,0,0,.68-.28c.48-.08.95-.18,1.41-.27l1.43-.31a2.51,2.51,0,0,0,1-.51l.33-.43a2.67,2.67,0,0,0,.38-.8A11.38,11.38,0,0,1,34.5,43a12.93,12.93,0,0,1-1.34.05l.13-3.65a9.45,9.45,0,0,1-1.67-.4,2.75,2.75,0,0,1-.9-.57,3.93,3.93,0,0,1-.82-.95,5.89,5.89,0,0,1-.42-.92,5.22,5.22,0,0,1-.24-1.75,3.87,3.87,0,0,1,.7-2.08c.37-.58.73-1.17,1.07-1.77a15.22,15.22,0,0,0,.93-2,1.65,1.65,0,0,1-1.45-1.16,1.77,1.77,0,0,1,1-2.28h0a1.72,1.72,0,0,1,1.37.07,1.78,1.78,0,0,1,.55,2.83,14.92,14.92,0,0,0,2,.94c.65.24,1.31.46,2,.66a3.9,3.9,0,0,1,1.85,1.15,5.7,5.7,0,0,1,1,1.5,6.74,6.74,0,0,1,.26,1,3.69,3.69,0,0,1,0,1.24,3.07,3.07,0,0,1-.34,1,8.44,8.44,0,0,1-1,1.37L41.61,40c-.32.26-.68.54-1.09.83a10,10,0,0,1-1.22.72,2.59,2.59,0,0,0,.79.37,4.86,4.86,0,0,0,.55.11,2.26,2.26,0,0,0,1-.22L43,41.13l1.28-.7a5.39,5.39,0,0,0,.68-.22c.23-.09.46-.17.7-.24a5.3,5.3,0,0,1,1.68-.15l.47.06a2.06,2.06,0,0,1,.54.2l-.5,2.41a1.47,1.47,0,0,0-.75-.11,2.37,2.37,0,0,0-.69.11l-.34.1a1.63,1.63,0,0,0-.37.13l-3.28,1.74a3.11,3.11,0,0,1-1.42.41,3.28,3.28,0,0,1-1.24-.18c-.35-.12-.64-.23-.86-.33a2.3,2.3,0,0,1-.74-.81"/>
      </g>
    </g>
    <g id="bk">
      <g id="Group_14" data-name="Group 14">
        <path id="Path_95" data-name="Path 95" class="cls-1" d="M103.53,43.79l-1.12-1.93s0,0,0,0a1.06,1.06,0,0,0-.4-.08,3,3,0,0,1-.76-.22l-1-.38a4.58,4.58,0,0,1-.69-.37,4.37,4.37,0,0,1-1.57-2,3.53,3.53,0,0,1,.12-2.9,4.11,4.11,0,0,1,2.71-2.32,8.27,8.27,0,0,1,1.86-.27l.75,0h.77a2.32,2.32,0,0,1,.38.06,2.16,2.16,0,0,1-.14-2.13,2.23,2.23,0,0,1,1.27-1.16,2.12,2.12,0,0,1,1.71.08,2,2,0,0,1,1.14,1.22,2.81,2.81,0,0,1,.12.48,3.2,3.2,0,0,1,.25-.27c.29-.27.67-.61,1.16-1a7.12,7.12,0,0,1,1.6-1,4,4,0,0,1,3.55,0,3.67,3.67,0,0,1,2,2.13,4.41,4.41,0,0,1,0,2.52,5.21,5.21,0,0,1-.3.74c-.12.24-.29.55-.51.92a3.46,3.46,0,0,1-.46.67.87.87,0,0,0-.23.31v0a0,0,0,0,0,0,0l.4,2.2,1.72,2.45a5.86,5.86,0,0,1-2.2,1.72,33.91,33.91,0,0,1-9,3.28,5.41,5.41,0,0,1-2.78.05l-.24-3"/>
        <path id="Path_100" data-name="Path 100" class="cls-1" d="M106,30l-.79.29-.53-1.44-.92.34a.36.36,0,0,1-.48-.14.14.14,0,0,1,0-.09h0a.35.35,0,0,1,.15-.47l.1,0,.93-.34-.34-.93a.36.36,0,0,1,.16-.5.17.17,0,0,1,.1,0,.36.36,0,0,1,.49.14.42.42,0,0,1,0,.1l.34.93,1-.35a.35.35,0,0,1,.47.14l0,.09h0a.35.35,0,0,1-.14.47.32.32,0,0,1-.09,0l-1,.36L106,30"/>
      </g>
    </g>
    <g id="bn">
      <g id="Group_15" data-name="Group 15">
        <path id="Path_105" data-name="Path 105" class="cls-1" d="M177.9,28a8.89,8.89,0,0,1,3.73-.31,9.31,9.31,0,0,1,3.42,1.12,12.75,12.75,0,0,1,2.23,1.63,13.92,13.92,0,0,1,2.07,2.27A17,17,0,0,1,191.19,36c.52,1.17,1,2.27,1.34,3.29l.91,2.5L179.1,47c-.07,0-.17-.15-.31-.52a5,5,0,0,1-.31-1.8,7.81,7.81,0,0,1,.14-1.44,5.38,5.38,0,0,1,.5-1.39l1-2.22a3.81,3.81,0,0,0,.33-1.63,3.73,3.73,0,0,0-.27-1.55,4.68,4.68,0,0,1-.74.91,7.24,7.24,0,0,0-2.66,3.82,10.76,10.76,0,0,0-.19,1.12,3,3,0,0,1-.18.74,1.08,1.08,0,0,1-.55.48,1.12,1.12,0,0,1-1.24-.25,3,3,0,0,1-.84.43,2.91,2.91,0,0,1-1.13-.17,3.13,3.13,0,0,1-1.21-.89,4.53,4.53,0,0,1-.63-1.19,5,5,0,0,1,.29-3,6.88,6.88,0,0,0,.5-3.32,6.79,6.79,0,0,1-.25-1,2,2,0,0,1,0-.8c0-.19.07-.31.08-.38s.07-.22.11-.33a1.71,1.71,0,0,1,.09-.27l.1-.27a4.35,4.35,0,0,1,.21-.47,8.66,8.66,0,0,1-1.76-3.27,9.93,9.93,0,0,1,4.82,1.14,4.15,4.15,0,0,1,.76-2.65,5,5,0,0,1,2.1,1.16"/>
      </g>
    </g>
    <g id="bp">
      <g id="Group_16" data-name="Group 16">
        <path id="Path_112" data-name="Path 112" class="cls-1" d="M255.27,45.58l-6.33,2.3a7.15,7.15,0,0,1-1.55-6.62,7.3,7.3,0,0,1,2.27-3.61,3.59,3.59,0,0,1-1.78-.67,3.32,3.32,0,0,1-1.16-1.58,3.29,3.29,0,0,1,0-2.43,3.36,3.36,0,0,1,1.64-1.78,2.41,2.41,0,0,1-1.64-1.54,2.47,2.47,0,0,1,.08-1.94,2.54,2.54,0,0,1,3.38-1.24h0a2.5,2.5,0,0,1,1.32,1.44,2.37,2.37,0,0,1-.27,2.23,3.34,3.34,0,0,1,2.4.31,3.39,3.39,0,0,1,1.7,3.8,3.47,3.47,0,0,1-.92,1.65,7.29,7.29,0,0,1,4.06,1.31,7.27,7.27,0,0,1,3.08,6.06l-6.33,2.31"/>
      </g>
    </g>
    <g id="bq">
      <g id="Group_17" data-name="Group 17">
        <path id="Path_113" data-name="Path 113" class="cls-1" d="M330.43,28.73a1.43,1.43,0,0,1-1.13,0,1.39,1.39,0,0,1-.77-.84,1.43,1.43,0,0,1,.05-1.13A1.47,1.47,0,0,1,330.5,26l.05,0a1.45,1.45,0,0,1,.77.84,1.47,1.47,0,0,1-.86,1.88h0"/>
        <path id="Path_114" data-name="Path 114" class="cls-1" d="M314.32,34.6a1.45,1.45,0,0,1-1.88-.83.14.14,0,0,0,0-.06,1.41,1.41,0,0,1,.05-1.12,1.47,1.47,0,0,1,1.94-.74l0,0a1.48,1.48,0,0,1,.71,2,1.46,1.46,0,0,1-.84.76"/>
        <path id="Path_115" data-name="Path 115" class="cls-1" d="M326.26,29a1.44,1.44,0,0,1-1.87-.83.14.14,0,0,1,0-.06,1.47,1.47,0,0,1,.89-1.89,1.49,1.49,0,0,1,1.9.88,1.47,1.47,0,0,1-.9,1.9"/>
        <path id="Path_116" data-name="Path 116" class="cls-1" d="M317.67,32.1a1.45,1.45,0,0,1-1.9-.88,1.47,1.47,0,0,1,.89-1.89,1.43,1.43,0,0,1,1.13.05,1.41,1.41,0,0,1,.76.83,1.47,1.47,0,0,1-.86,1.89h0"/>
        <path id="Path_120" data-name="Path 120" class="cls-1" d="M321.78,30a1.48,1.48,0,0,1-1-2.78h0a1.47,1.47,0,0,1,1.84,2,1.43,1.43,0,0,1-.83.77"/>
        <path id="Path_117" data-name="Path 117" class="cls-1" d="M333,41.41a5.52,5.52,0,0,1-2,1.55,26,26,0,0,1-3.92,1.76A25.31,25.31,0,0,1,323,45.9a5,5,0,0,1-2.49,0l-.25-2.69-.87-1.5-1.47-1.23-3.18-6,.43-.37,4.52,3.7-2-5.64.65-.38,4.19,4.87-1.06-6.49.7-.26,3.35,5.64.06-6.39.75-.14,2.11,5.6,1.09-5.75.56.05,1.45,6.63-.34,1.89.31,1.73L333,41.41"/>
      </g>
    </g>
    <g id="br">
      <g id="Group_18" data-name="Group 18">
        <path id="Path_122" data-name="Path 122" class="cls-1" d="M394.85,27.59l1.95-.71-.57-1.57,3.14-1.14,1.57,4.3-1.83,2.88,2,5.48,2.66,1.24.86,2.35,1.75-.63,1,2.74-15.65,5.69-1-2.74,1.75-.64-.85-2.35,1.25-2.66-2-5.48-3.26-1L386.05,29l3.13-1.14.57,1.57,2-.72-.57-1.57L394.29,26l.57,1.57"/>
      </g>
    </g>
    <g id="bb-2" data-name="bb">
      <g id="Group_13-2" data-name="Group 13">
        <path id="Path_89-2" data-name="Path 89" class="cls-1" d="M398.57,115.55a2.54,2.54,0,0,1-.06,1.13,6.41,6.41,0,0,1-.45.81,5.28,5.28,0,0,1-.86.91,3,3,0,0,1-1.31.59l-3.64.78a1.24,1.24,0,0,0-.38.14,1.94,1.94,0,0,1-.3.13,2.82,2.82,0,0,0-.63.37,1.4,1.4,0,0,0-.49.56l-1.91-1.53a1.69,1.69,0,0,1,.27-.49c.09-.11.2-.22.33-.36a5.1,5.1,0,0,1,1.38-1,5.46,5.46,0,0,1,.67-.26,5.24,5.24,0,0,0,.69-.28c.47-.08.94-.18,1.41-.27l1.42-.31a2.51,2.51,0,0,0,1-.51l.33-.43a2.67,2.67,0,0,0,.38-.8A11.38,11.38,0,0,1,395,115a12.93,12.93,0,0,1-1.34,0l.13-3.65a9.45,9.45,0,0,1-1.67-.4,2.61,2.61,0,0,1-.89-.57,3.54,3.54,0,0,1-.82-1,5.1,5.1,0,0,1-.42-.92,5,5,0,0,1-.25-1.75,3.87,3.87,0,0,1,.7-2.08c.37-.58.73-1.17,1.07-1.77a15.28,15.28,0,0,0,.94-2,1.65,1.65,0,0,1-1.46-1.16,1.77,1.77,0,0,1,1-2.28h0a1.7,1.7,0,0,1,1.36.07,1.73,1.73,0,0,1,.93,1,1.7,1.7,0,0,1-.37,1.83,13.82,13.82,0,0,0,2,.94q1,.36,2,.66a3.86,3.86,0,0,1,1.85,1.15,5.7,5.7,0,0,1,.95,1.5,6.74,6.74,0,0,1,.26,1,3.69,3.69,0,0,1,0,1.24,3.07,3.07,0,0,1-.34,1,8.44,8.44,0,0,1-1,1.37l2.45,2.72c-.32.26-.68.54-1.09.83a9.3,9.3,0,0,1-1.22.72,2.54,2.54,0,0,0,.8.37,4.69,4.69,0,0,0,.54.11,2.26,2.26,0,0,0,1.05-.22l1.27-.67,1.28-.7a5.39,5.39,0,0,0,.68-.22c.23-.09.46-.17.7-.24a5.3,5.3,0,0,1,1.68-.15l.48.06a2.14,2.14,0,0,1,.53.2l-.5,2.41a1.47,1.47,0,0,0-.75-.11,2.25,2.25,0,0,0-.68.11l-.35.1a1.63,1.63,0,0,0-.37.13l-3.28,1.74a3.07,3.07,0,0,1-1.42.41,3.28,3.28,0,0,1-1.24-.18c-.35-.12-.64-.23-.86-.33a2.3,2.3,0,0,1-.74-.81"/>
      </g>
    </g>
    <g id="bk-2" data-name="bk">
      <g id="Group_14-2" data-name="Group 14">
        <path id="Path_95-2" data-name="Path 95" class="cls-1" d="M319.9,115.79l-1.11-1.93s0,0-.05,0a1.1,1.1,0,0,0-.4-.08,2.88,2.88,0,0,1-.76-.22c-.43-.15-.77-.28-1-.38a4.14,4.14,0,0,1-.69-.37,4.39,4.39,0,0,1-1.58-2,3.53,3.53,0,0,1,.12-2.9,4.14,4.14,0,0,1,2.71-2.32,8.35,8.35,0,0,1,1.86-.27l.76,0h.77a2.5,2.5,0,0,1,.38.06,2.16,2.16,0,0,1-.15-2.13,2.23,2.23,0,0,1,1.27-1.16,2.12,2.12,0,0,1,1.71.08,2.06,2.06,0,0,1,1.15,1.22,4.21,4.21,0,0,1,.12.48,2,2,0,0,1,.24-.27c.29-.27.68-.61,1.16-1a7.35,7.35,0,0,1,1.6-1,4,4,0,0,1,3.56,0,3.65,3.65,0,0,1,2,2.13,4.41,4.41,0,0,1,.05,2.52,5.21,5.21,0,0,1-.3.74l-.51.92a3.51,3.51,0,0,1-.47.67.87.87,0,0,0-.23.31.06.06,0,0,1,0,0v0l.4,2.2,1.72,2.45a6,6,0,0,1-2.2,1.72,29.88,29.88,0,0,1-4.37,2,29.36,29.36,0,0,1-4.68,1.33,5.37,5.37,0,0,1-2.77,0l-.24-2.95"/>
        <path id="Path_100-2" data-name="Path 100" class="cls-1" d="M322.41,102l-.8.29-.52-1.44-.93.34a.35.35,0,0,1-.47-.14.25.25,0,0,1,0-.09h0a.35.35,0,0,1,.15-.47l.09,0,.93-.34-.34-.93a.38.38,0,0,1,.16-.5.19.19,0,0,1,.1,0,.37.37,0,0,1,.5.14.38.38,0,0,1,0,.1l.34.93,1-.35a.35.35,0,0,1,.47.14.16.16,0,0,1,0,.09h0a.35.35,0,0,1-.15.47.24.24,0,0,1-.09,0l-.94.36.51,1.43"/>
      </g>
    </g>
    <g id="bn-2" data-name="bn">
      <g id="Group_15-2" data-name="Group 15">
        <path id="Path_105-2" data-name="Path 105" class="cls-1" d="M249.83,100a8.89,8.89,0,0,1,3.73-.31,9.31,9.31,0,0,1,3.42,1.12,12.39,12.39,0,0,1,2.23,1.63,13.92,13.92,0,0,1,2.07,2.27,17,17,0,0,1,1.84,3.24c.52,1.17,1,2.27,1.34,3.29l.91,2.5L251,119c-.07,0-.17-.15-.31-.52a5,5,0,0,1-.31-1.8,7.81,7.81,0,0,1,.14-1.44,5.38,5.38,0,0,1,.5-1.39l1-2.22a3.81,3.81,0,0,0,.33-1.63,3.73,3.73,0,0,0-.27-1.55,4.68,4.68,0,0,1-.74.91,7.24,7.24,0,0,0-2.66,3.82,10.76,10.76,0,0,0-.19,1.12,3,3,0,0,1-.18.74,1.08,1.08,0,0,1-.55.48,1.12,1.12,0,0,1-1.24-.25,3,3,0,0,1-.84.43,2.91,2.91,0,0,1-1.13-.17,3.13,3.13,0,0,1-1.21-.89,4.85,4.85,0,0,1-.63-1.19,5,5,0,0,1,.29-3,6.88,6.88,0,0,0,.5-3.32,6.79,6.79,0,0,1-.25-1,2,2,0,0,1,0-.8c0-.19.07-.31.08-.38s.07-.22.11-.33a1.71,1.71,0,0,1,.09-.27c0-.08.07-.17.1-.27a4.35,4.35,0,0,1,.21-.47,8.66,8.66,0,0,1-1.76-3.27,10,10,0,0,1,4.83,1.14,4.09,4.09,0,0,1,.75-2.65,4.94,4.94,0,0,1,2.1,1.16"/>
      </g>
    </g>
    <g id="bp-2" data-name="bp">
      <g id="Group_16-2" data-name="Group 16">
        <path id="Path_112-2" data-name="Path 112" class="cls-1" d="M183.64,117.58l6.34-2.3a7.18,7.18,0,0,0-3.07-6.07,7.32,7.32,0,0,0-4.06-1.31,3.53,3.53,0,0,0,.93-1.65,3.36,3.36,0,0,0-.13-2,3.24,3.24,0,0,0-1.59-1.84,3.34,3.34,0,0,0-2.4-.31,2.39,2.39,0,0,0,.26-2.23,2.49,2.49,0,0,0-1.3-1.44,2.56,2.56,0,0,0-3.39,1.23h0a2.43,2.43,0,0,0-.09,1.94,2.39,2.39,0,0,0,1.64,1.54,3.36,3.36,0,0,0-1.64,1.78,3.4,3.4,0,0,0,1.14,4,3.56,3.56,0,0,0,1.77.67,7.3,7.3,0,0,0-2.27,3.61,6.93,6.93,0,0,0,.19,4.34,7.18,7.18,0,0,0,1.35,2.29l6.33-2.31"/>
      </g>
    </g>
    <g id="bq-2" data-name="bq">
      <g id="Group_17-2" data-name="Group 17">
        <path id="Path_113-2" data-name="Path 113" class="cls-1" d="M98.35,106.6a1.48,1.48,0,0,0,.85-.76,1.46,1.46,0,0,0,0-1.14,1.43,1.43,0,0,0-.77-.83,1.45,1.45,0,0,0-2,.67l0,0a1.44,1.44,0,0,0-.05,1.13,1.45,1.45,0,0,0,1.87.89h0"/>
        <path id="Path_114-2" data-name="Path 114" class="cls-1" d="M114.47,100.73a1.45,1.45,0,0,0,.9-1.84l0,0a1.48,1.48,0,0,0-2.72-.16l0,0a1.48,1.48,0,0,0,.72,2,1.46,1.46,0,0,0,1.14,0"/>
        <path id="Path_115-2" data-name="Path 115" class="cls-1" d="M101.71,104.1a1.44,1.44,0,0,0,.9-1.83s0,0,0-.06a1.48,1.48,0,0,0-1.9-.88,1.51,1.51,0,0,0-.84.77,1.41,1.41,0,0,0,0,1.12,1.45,1.45,0,0,0,1.91.88"/>
        <path id="Path_116-2" data-name="Path 116" class="cls-1" d="M110.3,101a1.43,1.43,0,0,0,.84-.76,1.42,1.42,0,0,0,0-1.14,1.49,1.49,0,0,0-2.74-.12,1.44,1.44,0,0,0,0,1.13,1.46,1.46,0,0,0,1.87.9h0"/>
        <path id="Path_120-2" data-name="Path 120" class="cls-1" d="M105.82,102a1.48,1.48,0,0,0,.84-.77,1.5,1.5,0,0,0,0-1.14,1.48,1.48,0,0,0-1.88-.89h0a1.43,1.43,0,0,0-.83.77,1.39,1.39,0,0,0-.06,1.13,1.41,1.41,0,0,0,.78.84,1.43,1.43,0,0,0,1.13,0"/>
        <path id="Path_117-2" data-name="Path 117" class="cls-1" d="M104.51,118a5.51,5.51,0,0,0,2.51-.08,26.66,26.66,0,0,0,4.13-1.17,25.26,25.26,0,0,0,4-1.79,5,5,0,0,0,1.94-1.57l-1.54-2.22-.3-1.71.33-1.89-1.44-6.67h-.57l-1.08,5.74-2.11-5.6-.74.13-.08,6.43-3.35-5.66-.71.25,1.06,6.48-4.16-4.86-.66.38,2,5.64-4.53-3.71-.39.4,3.14,6,1.48,1.24.88,1.51.24,2.73"/>
      </g>
    </g>
    <g id="br-2" data-name="br">
      <g id="Group_18-2" data-name="Group 18">
        <path id="Path_122-2" data-name="Path 122" class="cls-1" d="M31.39,100.74l-1.95.71-.58-1.57L25.72,101l1.57,4.3,3.26,1,2,5.48-1.24,2.66.86,2.35-1.76.64,1,2.74,15.65-5.69-1-2.74-1.75.63-.86-2.35-2.67-1.23-2-5.48,1.83-2.89L39,96.17l-3.13,1.14.57,1.57-2,.72L34,98l-3.14,1.15.57,1.57"/>
      </g>
    </g>
    <g id="bb-3" data-name="bb">
      <g id="Group_13-3" data-name="Group 13">
        <path id="Path_89-3" data-name="Path 89" class="cls-1" d="M38.12,187.55a2.54,2.54,0,0,1-.06,1.13,6.41,6.41,0,0,1-.45.81,5.69,5.69,0,0,1-.86.91,3,3,0,0,1-1.31.59l-3.64.78a1.4,1.4,0,0,0-.39.14,1.36,1.36,0,0,1-.3.13,3,3,0,0,0-.62.37A1.4,1.4,0,0,0,30,193l-1.92-1.53a2.34,2.34,0,0,1,.27-.49l.34-.36a5,5,0,0,1,1.38-1,5.46,5.46,0,0,1,.67-.26,5.11,5.11,0,0,0,.68-.28c.48-.08.95-.18,1.41-.27l1.43-.31a2.51,2.51,0,0,0,1-.51l.33-.43a2.67,2.67,0,0,0,.38-.8,11.38,11.38,0,0,1-1.42.24,12.93,12.93,0,0,1-1.34.05l.13-3.65a9.45,9.45,0,0,1-1.67-.4,2.75,2.75,0,0,1-.9-.57,3.93,3.93,0,0,1-.82-.95,5.89,5.89,0,0,1-.42-.92,5.22,5.22,0,0,1-.24-1.75,3.87,3.87,0,0,1,.7-2.08c.37-.58.73-1.17,1.07-1.77a15.22,15.22,0,0,0,.93-2,1.65,1.65,0,0,1-1.45-1.16,1.77,1.77,0,0,1,1-2.28h0a1.72,1.72,0,0,1,1.37.07,1.78,1.78,0,0,1,.55,2.83,14.92,14.92,0,0,0,2,.94c.65.24,1.31.46,2,.66a3.9,3.9,0,0,1,1.85,1.15,5.7,5.7,0,0,1,1,1.5,6.74,6.74,0,0,1,.26,1,3.69,3.69,0,0,1,0,1.24,3.07,3.07,0,0,1-.34,1,8.44,8.44,0,0,1-1,1.37L41.61,184c-.32.26-.68.54-1.09.83a10,10,0,0,1-1.22.72,2.59,2.59,0,0,0,.79.37,4.86,4.86,0,0,0,.55.11,2.26,2.26,0,0,0,1-.22l1.27-.67,1.28-.7a5.39,5.39,0,0,0,.68-.22c.23-.09.46-.17.7-.24a5.3,5.3,0,0,1,1.68-.15l.47.06a2.06,2.06,0,0,1,.54.2l-.5,2.41a1.47,1.47,0,0,0-.75-.11,2.37,2.37,0,0,0-.69.11l-.34.1a1.63,1.63,0,0,0-.37.13l-3.28,1.74a3.11,3.11,0,0,1-1.42.41,3.28,3.28,0,0,1-1.24-.18c-.35-.12-.64-.23-.86-.33a2.3,2.3,0,0,1-.74-.81"/>
      </g>
    </g>
    <g id="bk-3" data-name="bk">
      <g id="Group_14-3" data-name="Group 14">
        <path id="Path_95-3" data-name="Path 95" class="cls-1" d="M103.53,187.79l-1.12-1.93s0,0,0,0a1.06,1.06,0,0,0-.4-.08,3,3,0,0,1-.76-.22l-1-.38a4.58,4.58,0,0,1-.69-.37,4.37,4.37,0,0,1-1.57-2,3.53,3.53,0,0,1,.12-2.9,4.11,4.11,0,0,1,2.71-2.32,8.27,8.27,0,0,1,1.86-.27l.75,0h.77a2.32,2.32,0,0,1,.38.06,2.16,2.16,0,0,1-.14-2.13,2.23,2.23,0,0,1,1.27-1.16,2.12,2.12,0,0,1,1.71.08,2,2,0,0,1,1.14,1.22,2.81,2.81,0,0,1,.12.48,3.2,3.2,0,0,1,.25-.27c.29-.27.67-.61,1.16-1a7.12,7.12,0,0,1,1.6-1,4,4,0,0,1,3.55,0,3.67,3.67,0,0,1,2,2.13,4.41,4.41,0,0,1,0,2.52,5.21,5.21,0,0,1-.3.74c-.12.24-.29.55-.51.92a3.46,3.46,0,0,1-.46.67.87.87,0,0,0-.23.31v0a0,0,0,0,0,0,0l.4,2.2,1.72,2.45a5.86,5.86,0,0,1-2.2,1.72,33.91,33.91,0,0,1-9,3.28,5.41,5.41,0,0,1-2.78.05l-.24-3"/>
        <path id="Path_100-3" data-name="Path 100" class="cls-1" d="M106,174l-.79.29-.53-1.44-.92.34a.36.36,0,0,1-.48-.14.14.14,0,0,1,0-.09h0a.35.35,0,0,1,.15-.47l.1,0,.93-.34-.34-.93a.36.36,0,0,1,.16-.5.17.17,0,0,1,.1,0,.36.36,0,0,1,.49.14.42.42,0,0,1,0,.1l.34.93,1-.35a.35.35,0,0,1,.47.14l0,.09h0a.35.35,0,0,1-.14.47l-.09,0-1,.36L106,174"/>
      </g>
    </g>
    <g id="bn-3" data-name="bn">
      <g id="Group_15-3" data-name="Group 15">
        <path id="Path_105-3" data-name="Path 105" class="cls-1" d="M177.9,172a8.89,8.89,0,0,1,3.73-.31,9.31,9.31,0,0,1,3.42,1.12,12.75,12.75,0,0,1,2.23,1.63,13.92,13.92,0,0,1,2.07,2.27,17,17,0,0,1,1.84,3.24c.52,1.17,1,2.27,1.34,3.29l.91,2.5L179.1,191c-.07,0-.17-.15-.31-.52a5,5,0,0,1-.31-1.8,7.81,7.81,0,0,1,.14-1.44,5.38,5.38,0,0,1,.5-1.39l1-2.22a3.81,3.81,0,0,0,.33-1.63,3.73,3.73,0,0,0-.27-1.55,4.68,4.68,0,0,1-.74.91,7.24,7.24,0,0,0-2.66,3.82,10.76,10.76,0,0,0-.19,1.12,3,3,0,0,1-.18.74,1.08,1.08,0,0,1-.55.48,1.12,1.12,0,0,1-1.24-.25,3,3,0,0,1-.84.43,2.91,2.91,0,0,1-1.13-.17,3.13,3.13,0,0,1-1.21-.89,4.53,4.53,0,0,1-.63-1.19,5,5,0,0,1,.29-3,6.88,6.88,0,0,0,.5-3.32,6.79,6.79,0,0,1-.25-1,2,2,0,0,1,0-.8c0-.19.07-.31.08-.38s.07-.22.11-.33a1.71,1.71,0,0,1,.09-.27l.1-.27a4.35,4.35,0,0,1,.21-.47,8.66,8.66,0,0,1-1.76-3.27,9.93,9.93,0,0,1,4.82,1.14,4.15,4.15,0,0,1,.76-2.65,5,5,0,0,1,2.1,1.16"/>
      </g>
    </g>
    <g id="bp-3" data-name="bp">
      <g id="Group_16-3" data-name="Group 16">
        <path id="Path_112-3" data-name="Path 112" class="cls-1" d="M255.27,189.58l-6.33,2.3a7.15,7.15,0,0,1-1.55-6.62,7.3,7.3,0,0,1,2.27-3.61,3.59,3.59,0,0,1-1.78-.67,3.32,3.32,0,0,1-1.16-1.58,3.29,3.29,0,0,1,0-2.43,3.36,3.36,0,0,1,1.64-1.78,2.41,2.41,0,0,1-1.64-1.54,2.47,2.47,0,0,1,.08-1.94,2.54,2.54,0,0,1,3.38-1.24h0a2.5,2.5,0,0,1,1.32,1.44,2.37,2.37,0,0,1-.27,2.23,3.34,3.34,0,0,1,2.4.31,3.39,3.39,0,0,1,1.7,3.8,3.47,3.47,0,0,1-.92,1.65,7.29,7.29,0,0,1,4.06,1.31,7.27,7.27,0,0,1,3.08,6.06l-6.33,2.31"/>
      </g>
    </g>
    <g id="bq-3" data-name="bq">
      <g id="Group_17-3" data-name="Group 17">
        <path id="Path_113-3" data-name="Path 113" class="cls-1" d="M330.43,172.73a1.43,1.43,0,0,1-1.13,0,1.39,1.39,0,0,1-.77-.84,1.43,1.43,0,0,1,.05-1.13,1.47,1.47,0,0,1,1.92-.74l.05,0a1.45,1.45,0,0,1,.77.84,1.47,1.47,0,0,1-.86,1.88h0"/>
        <path id="Path_114-3" data-name="Path 114" class="cls-1" d="M314.32,178.6a1.45,1.45,0,0,1-1.88-.83.14.14,0,0,0,0-.06,1.41,1.41,0,0,1,.05-1.12,1.47,1.47,0,0,1,1.94-.74l0,0a1.48,1.48,0,0,1,.71,2,1.46,1.46,0,0,1-.84.76"/>
        <path id="Path_115-3" data-name="Path 115" class="cls-1" d="M326.26,173a1.44,1.44,0,0,1-1.87-.83.14.14,0,0,1,0-.06,1.47,1.47,0,0,1,.89-1.89,1.49,1.49,0,0,1,1.9.88,1.47,1.47,0,0,1-.9,1.9"/>
        <path id="Path_116-3" data-name="Path 116" class="cls-1" d="M317.67,176.1a1.45,1.45,0,0,1-1.9-.88,1.47,1.47,0,0,1,.89-1.89,1.43,1.43,0,0,1,1.13,0,1.41,1.41,0,0,1,.76.83,1.47,1.47,0,0,1-.86,1.89h0"/>
        <path id="Path_120-3" data-name="Path 120" class="cls-1" d="M321.78,174a1.48,1.48,0,0,1-1-2.78h0a1.47,1.47,0,0,1,1.84,2,1.43,1.43,0,0,1-.83.77"/>
        <path id="Path_117-3" data-name="Path 117" class="cls-1" d="M333,185.41a5.52,5.52,0,0,1-2,1.55,26,26,0,0,1-3.92,1.76A25.31,25.31,0,0,1,323,189.9a5,5,0,0,1-2.49,0l-.25-2.69-.87-1.5-1.47-1.23-3.18-6,.43-.37,4.52,3.7-2-5.64.65-.38,4.19,4.87-1.06-6.49.7-.26,3.35,5.64.06-6.39.75-.14,2.11,5.6,1.09-5.75.56,0,1.45,6.63-.34,1.89.31,1.73,1.56,2.24"/>
      </g>
    </g>
    <g id="br-3" data-name="br">
      <g id="Group_18-3" data-name="Group 18">
        <path id="Path_122-3" data-name="Path 122" class="cls-1" d="M394.85,171.59l1.95-.71-.57-1.57,3.14-1.14,1.57,4.3-1.83,2.88,2,5.48,2.66,1.24.86,2.35,1.75-.63,1,2.74-15.65,5.69-1-2.74,1.75-.64-.85-2.35,1.25-2.66-2-5.48-3.26-1-1.57-4.3,3.13-1.14.57,1.57,2-.72-.57-1.57,3.15-1.14.57,1.57"/>
      </g>
    </g>
    <g id="bb-4" data-name="bb">
      <g id="Group_13-4" data-name="Group 13">
        <path id="Path_89-4" data-name="Path 89" class="cls-1" d="M398.57,259.55a2.54,2.54,0,0,1-.06,1.13,6.41,6.41,0,0,1-.45.81,5.28,5.28,0,0,1-.86.91,3,3,0,0,1-1.31.59l-3.64.78a1.24,1.24,0,0,0-.38.14,1.94,1.94,0,0,1-.3.13,2.82,2.82,0,0,0-.63.37,1.4,1.4,0,0,0-.49.56l-1.91-1.53a1.69,1.69,0,0,1,.27-.49c.09-.11.2-.22.33-.36a5.1,5.1,0,0,1,1.38-1,5.46,5.46,0,0,1,.67-.26,5.24,5.24,0,0,0,.69-.28l1.41-.27,1.42-.31a2.51,2.51,0,0,0,1-.51l.33-.43a2.67,2.67,0,0,0,.38-.8A11.38,11.38,0,0,1,395,259a12.93,12.93,0,0,1-1.34.05l.13-3.65a9.45,9.45,0,0,1-1.67-.4,2.61,2.61,0,0,1-.89-.57,3.54,3.54,0,0,1-.82-.95,5.1,5.1,0,0,1-.42-.92,5,5,0,0,1-.25-1.75,3.87,3.87,0,0,1,.7-2.08c.37-.58.73-1.17,1.07-1.77a15.28,15.28,0,0,0,.94-2,1.65,1.65,0,0,1-1.46-1.16,1.77,1.77,0,0,1,1-2.28h0a1.7,1.7,0,0,1,1.36.07,1.73,1.73,0,0,1,.93,1,1.7,1.7,0,0,1-.37,1.83,13.82,13.82,0,0,0,2,.94q1,.36,2,.66a3.86,3.86,0,0,1,1.85,1.15,5.7,5.7,0,0,1,.95,1.5,6.74,6.74,0,0,1,.26,1,3.69,3.69,0,0,1,0,1.24,3.07,3.07,0,0,1-.34,1,8.44,8.44,0,0,1-1,1.37l2.45,2.72c-.32.26-.68.54-1.09.83a9.3,9.3,0,0,1-1.22.72,2.54,2.54,0,0,0,.8.37,4.69,4.69,0,0,0,.54.11,2.26,2.26,0,0,0,1.05-.22l1.27-.67,1.28-.7a5.39,5.39,0,0,0,.68-.22c.23-.09.46-.17.7-.24a5.3,5.3,0,0,1,1.68-.15l.48.06a2.14,2.14,0,0,1,.53.2l-.5,2.41a1.47,1.47,0,0,0-.75-.11,2.25,2.25,0,0,0-.68.11l-.35.1a1.63,1.63,0,0,0-.37.13l-3.28,1.74a3.07,3.07,0,0,1-1.42.41,3.28,3.28,0,0,1-1.24-.18c-.35-.12-.64-.23-.86-.33a2.3,2.3,0,0,1-.74-.81"/>
      </g>
    </g>
    <g id="bk-4" data-name="bk">
      <g id="Group_14-4" data-name="Group 14">
        <path id="Path_95-4" data-name="Path 95" class="cls-1" d="M319.9,259.79l-1.11-1.93s0,0-.05,0a1.1,1.1,0,0,0-.4-.08,2.88,2.88,0,0,1-.76-.22c-.43-.15-.77-.28-1-.38a4.14,4.14,0,0,1-.69-.37,4.39,4.39,0,0,1-1.58-2,3.53,3.53,0,0,1,.12-2.9,4.14,4.14,0,0,1,2.71-2.32,8.35,8.35,0,0,1,1.86-.27l.76,0h.77a2.5,2.5,0,0,1,.38.06,2.16,2.16,0,0,1-.15-2.13,2.23,2.23,0,0,1,1.27-1.16,2.12,2.12,0,0,1,1.71.08,2.06,2.06,0,0,1,1.15,1.22,4.21,4.21,0,0,1,.12.48,2,2,0,0,1,.24-.27c.29-.27.68-.61,1.16-1a7.35,7.35,0,0,1,1.6-1,4,4,0,0,1,3.56,0,3.65,3.65,0,0,1,2,2.13,4.41,4.41,0,0,1,.05,2.52,5.21,5.21,0,0,1-.3.74l-.51.92a3.51,3.51,0,0,1-.47.67.87.87,0,0,0-.23.31.06.06,0,0,1,0,0v0l.4,2.2,1.72,2.45a6,6,0,0,1-2.2,1.72,29.88,29.88,0,0,1-4.37,1.95,29.36,29.36,0,0,1-4.68,1.33,5.37,5.37,0,0,1-2.77.05l-.24-2.95"/>
        <path id="Path_100-4" data-name="Path 100" class="cls-1" d="M322.41,246l-.8.29-.52-1.44-.93.34a.35.35,0,0,1-.47-.14.25.25,0,0,1,0-.09h0a.35.35,0,0,1,.15-.47l.09,0,.93-.34-.34-.93a.38.38,0,0,1,.16-.5.19.19,0,0,1,.1,0,.37.37,0,0,1,.5.14.38.38,0,0,1,0,.1l.34.93,1-.35a.35.35,0,0,1,.47.14.16.16,0,0,1,0,.09h0a.35.35,0,0,1-.15.47.24.24,0,0,1-.09,0l-.94.36.51,1.43"/>
      </g>
    </g>
    <g id="bn-4" data-name="bn">
      <g id="Group_15-4" data-name="Group 15">
        <path id="Path_105-4" data-name="Path 105" class="cls-1" d="M249.83,244a8.89,8.89,0,0,1,3.73-.31,9.31,9.31,0,0,1,3.42,1.12,12.39,12.39,0,0,1,2.23,1.63,13.92,13.92,0,0,1,2.07,2.27,17,17,0,0,1,1.84,3.24c.52,1.17,1,2.27,1.34,3.29l.91,2.5L251,263c-.07,0-.17-.15-.31-.52a5,5,0,0,1-.31-1.8,7.81,7.81,0,0,1,.14-1.44,5.38,5.38,0,0,1,.5-1.39l1-2.22a3.81,3.81,0,0,0,.33-1.63,3.73,3.73,0,0,0-.27-1.55,4.68,4.68,0,0,1-.74.91,7.24,7.24,0,0,0-2.66,3.82,10.76,10.76,0,0,0-.19,1.12,3,3,0,0,1-.18.74,1.08,1.08,0,0,1-.55.48,1.12,1.12,0,0,1-1.24-.25,3,3,0,0,1-.84.43,2.91,2.91,0,0,1-1.13-.17,3.13,3.13,0,0,1-1.21-.89,4.85,4.85,0,0,1-.63-1.19,5,5,0,0,1,.29-3,6.88,6.88,0,0,0,.5-3.32,6.79,6.79,0,0,1-.25-1,2,2,0,0,1,0-.8c0-.19.07-.31.08-.38s.07-.22.11-.33a1.71,1.71,0,0,1,.09-.27c0-.08.07-.17.1-.27a4.35,4.35,0,0,1,.21-.47,8.66,8.66,0,0,1-1.76-3.27,10,10,0,0,1,4.83,1.14,4.09,4.09,0,0,1,.75-2.65,4.94,4.94,0,0,1,2.1,1.16"/>
      </g>
    </g>
    <g id="bp-4" data-name="bp">
      <g id="Group_16-4" data-name="Group 16">
        <path id="Path_112-4" data-name="Path 112" class="cls-1" d="M183.64,261.58l6.34-2.3a7.18,7.18,0,0,0-3.07-6.07,7.32,7.32,0,0,0-4.06-1.31,3.53,3.53,0,0,0,.93-1.65,3.36,3.36,0,0,0-.13-2,3.24,3.24,0,0,0-1.59-1.84,3.34,3.34,0,0,0-2.4-.31,2.39,2.39,0,0,0,.26-2.23,2.49,2.49,0,0,0-1.3-1.44,2.56,2.56,0,0,0-3.39,1.23h0a2.43,2.43,0,0,0-.09,1.94,2.39,2.39,0,0,0,1.64,1.54,3.36,3.36,0,0,0-1.64,1.78,3.4,3.4,0,0,0,1.14,4,3.56,3.56,0,0,0,1.77.67,7.3,7.3,0,0,0-2.27,3.61,6.93,6.93,0,0,0,.19,4.34,7.18,7.18,0,0,0,1.35,2.29l6.33-2.31"/>
      </g>
    </g>
    <g id="bq-4" data-name="bq">
      <g id="Group_17-4" data-name="Group 17">
        <path id="Path_113-4" data-name="Path 113" class="cls-1" d="M98.35,250.6a1.48,1.48,0,0,0,.85-.76,1.46,1.46,0,0,0,0-1.14,1.43,1.43,0,0,0-.77-.83,1.45,1.45,0,0,0-2,.67l0,0a1.44,1.44,0,0,0-.05,1.13,1.45,1.45,0,0,0,1.87.89h0"/>
        <path id="Path_114-4" data-name="Path 114" class="cls-1" d="M114.47,244.73a1.45,1.45,0,0,0,.9-1.84l0,0a1.48,1.48,0,0,0-2.72-.16l0,0a1.48,1.48,0,0,0,.72,2,1.46,1.46,0,0,0,1.14,0"/>
        <path id="Path_115-4" data-name="Path 115" class="cls-1" d="M101.71,248.1a1.44,1.44,0,0,0,.9-1.83s0,0,0-.06a1.48,1.48,0,0,0-1.9-.88,1.51,1.51,0,0,0-.84.77,1.41,1.41,0,0,0,0,1.12,1.45,1.45,0,0,0,1.91.88"/>
        <path id="Path_116-4" data-name="Path 116" class="cls-1" d="M110.3,245a1.43,1.43,0,0,0,.84-.76,1.42,1.42,0,0,0,0-1.14,1.49,1.49,0,0,0-2.74-.12,1.44,1.44,0,0,0,0,1.13,1.46,1.46,0,0,0,1.87.9h0"/>
        <path id="Path_120-4" data-name="Path 120" class="cls-1" d="M105.82,246a1.48,1.48,0,0,0,.84-.77,1.5,1.5,0,0,0,0-1.14,1.48,1.48,0,0,0-1.88-.89h0a1.43,1.43,0,0,0-.83.77,1.39,1.39,0,0,0-.06,1.13,1.41,1.41,0,0,0,.78.84,1.43,1.43,0,0,0,1.13.05"/>
        <path id="Path_117-4" data-name="Path 117" class="cls-1" d="M104.51,262a5.51,5.51,0,0,0,2.51-.08,26.66,26.66,0,0,0,4.13-1.17,25.26,25.26,0,0,0,4-1.79,5,5,0,0,0,1.94-1.57l-1.54-2.22-.3-1.71.33-1.89-1.44-6.67h-.57l-1.08,5.74-2.11-5.6-.74.13-.08,6.43-3.35-5.66-.71.25,1.06,6.48-4.16-4.86-.66.38,2,5.64-4.53-3.71-.39.4,3.14,6,1.48,1.24.88,1.51.24,2.73"/>
      </g>
    </g>
    <g id="br-4" data-name="br">
      <g id="Group_18-4" data-name="Group 18">
        <path id="Path_122-4" data-name="Path 122" class="cls-1" d="M31.39,244.74l-1.95.71-.58-1.57L25.72,245l1.57,4.3,3.26,1,2,5.48-1.24,2.66.86,2.35-1.76.64,1,2.74,15.65-5.69-1-2.74-1.75.63-.86-2.35-2.67-1.23-2-5.48,1.83-2.89L39,240.17l-3.13,1.14.57,1.57-2,.72L34,242l-3.14,1.15.57,1.57"/>
      </g>
    </g>
    <g id="bb-5" data-name="bb">
      <g id="Group_13-5" data-name="Group 13">
        <path id="Path_89-5" data-name="Path 89" class="cls-1" d="M38.12,331.55a2.54,2.54,0,0,1-.06,1.13,6.41,6.41,0,0,1-.45.81,5.69,5.69,0,0,1-.86.91,3,3,0,0,1-1.31.59l-3.64.78a1.4,1.4,0,0,0-.39.14,1.36,1.36,0,0,1-.3.13,3,3,0,0,0-.62.37A1.4,1.4,0,0,0,30,337l-1.92-1.53a2.34,2.34,0,0,1,.27-.49l.34-.36a5,5,0,0,1,1.38-1,5.46,5.46,0,0,1,.67-.26,5.11,5.11,0,0,0,.68-.28c.48-.08.95-.18,1.41-.27l1.43-.31a2.51,2.51,0,0,0,1-.51l.33-.43a2.67,2.67,0,0,0,.38-.8,11.38,11.38,0,0,1-1.42.24,12.93,12.93,0,0,1-1.34.05l.13-3.65a9.45,9.45,0,0,1-1.67-.4,2.75,2.75,0,0,1-.9-.57,3.93,3.93,0,0,1-.82-.95,5.89,5.89,0,0,1-.42-.92,5.22,5.22,0,0,1-.24-1.75,3.87,3.87,0,0,1,.7-2.08c.37-.58.73-1.17,1.07-1.77a15.22,15.22,0,0,0,.93-2,1.65,1.65,0,0,1-1.45-1.16,1.77,1.77,0,0,1,1-2.28h0a1.72,1.72,0,0,1,1.37.07,1.78,1.78,0,0,1,.55,2.83,14.92,14.92,0,0,0,2,.94c.65.24,1.31.46,2,.66a3.9,3.9,0,0,1,1.85,1.15,5.7,5.7,0,0,1,1,1.5,6.74,6.74,0,0,1,.26,1,3.69,3.69,0,0,1,0,1.24,3.07,3.07,0,0,1-.34,1,8.44,8.44,0,0,1-1,1.37L41.61,328c-.32.26-.68.54-1.09.83a10,10,0,0,1-1.22.72,2.59,2.59,0,0,0,.79.37,4.86,4.86,0,0,0,.55.11,2.26,2.26,0,0,0,1-.22l1.27-.67,1.28-.7a5.39,5.39,0,0,0,.68-.22c.23-.09.46-.17.7-.24a5.3,5.3,0,0,1,1.68-.15l.47.06a2.06,2.06,0,0,1,.54.2l-.5,2.41a1.47,1.47,0,0,0-.75-.11,2.37,2.37,0,0,0-.69.11l-.34.1a1.63,1.63,0,0,0-.37.13l-3.28,1.74a3.11,3.11,0,0,1-1.42.41,3.28,3.28,0,0,1-1.24-.18c-.35-.12-.64-.23-.86-.33a2.3,2.3,0,0,1-.74-.81"/>
      </g>
    </g>
    <g id="bk-5" data-name="bk">
      <g id="Group_14-5" data-name="Group 14">
        <path id="Path_95-5" data-name="Path 95" class="cls-1" d="M103.53,331.79l-1.12-1.93s0,0,0,0a1.06,1.06,0,0,0-.4-.08,3,3,0,0,1-.76-.22l-1-.38a4.58,4.58,0,0,1-.69-.37,4.37,4.37,0,0,1-1.57-2,3.53,3.53,0,0,1,.12-2.9,4.11,4.11,0,0,1,2.71-2.32,8.27,8.27,0,0,1,1.86-.27l.75,0h.77a2.32,2.32,0,0,1,.38.06,2.16,2.16,0,0,1-.14-2.13,2.23,2.23,0,0,1,1.27-1.16,2.12,2.12,0,0,1,1.71.08,2,2,0,0,1,1.14,1.22,2.81,2.81,0,0,1,.12.48,3.2,3.2,0,0,1,.25-.27c.29-.27.67-.61,1.16-1a7.12,7.12,0,0,1,1.6-1,4,4,0,0,1,3.55,0,3.67,3.67,0,0,1,2,2.13,4.41,4.41,0,0,1,0,2.52,5.21,5.21,0,0,1-.3.74c-.12.24-.29.55-.51.92a3.46,3.46,0,0,1-.46.67.87.87,0,0,0-.23.31v0a0,0,0,0,0,0,0l.4,2.2,1.72,2.45a5.86,5.86,0,0,1-2.2,1.72,33.91,33.91,0,0,1-9,3.28,5.41,5.41,0,0,1-2.78.05l-.24-2.95"/>
        <path id="Path_100-5" data-name="Path 100" class="cls-1" d="M106,318l-.79.29-.53-1.44-.92.34a.36.36,0,0,1-.48-.14.14.14,0,0,1,0-.09h0a.35.35,0,0,1,.15-.47l.1,0,.93-.34-.34-.93a.36.36,0,0,1,.16-.5.17.17,0,0,1,.1,0,.36.36,0,0,1,.49.14.42.42,0,0,1,0,.1l.34.93,1-.35a.35.35,0,0,1,.47.14l0,.09h0a.35.35,0,0,1-.14.47l-.09,0-1,.36L106,318"/>
      </g>
    </g>
    <g id="bn-5" data-name="bn">
      <g id="Group_15-5" data-name="Group 15">
        <path id="Path_105-5" data-name="Path 105" class="cls-1" d="M177.9,316a8.89,8.89,0,0,1,3.73-.31,9.31,9.31,0,0,1,3.42,1.12,12.75,12.75,0,0,1,2.23,1.63,13.92,13.92,0,0,1,2.07,2.27,17,17,0,0,1,1.84,3.24c.52,1.17,1,2.27,1.34,3.29l.91,2.5L179.1,335c-.07,0-.17-.15-.31-.52a5,5,0,0,1-.31-1.8,7.81,7.81,0,0,1,.14-1.44,5.38,5.38,0,0,1,.5-1.39l1-2.22a3.81,3.81,0,0,0,.33-1.63,3.73,3.73,0,0,0-.27-1.55,4.68,4.68,0,0,1-.74.91,7.24,7.24,0,0,0-2.66,3.82,10.76,10.76,0,0,0-.19,1.12,3,3,0,0,1-.18.74,1.08,1.08,0,0,1-.55.48,1.12,1.12,0,0,1-1.24-.25,3,3,0,0,1-.84.43,2.91,2.91,0,0,1-1.13-.17,3.13,3.13,0,0,1-1.21-.89,4.53,4.53,0,0,1-.63-1.19,5,5,0,0,1,.29-3,6.88,6.88,0,0,0,.5-3.32,6.79,6.79,0,0,1-.25-1,2,2,0,0,1,0-.8c0-.19.07-.31.08-.38s.07-.22.11-.33a1.71,1.71,0,0,1,.09-.27l.1-.27a4.35,4.35,0,0,1,.21-.47,8.66,8.66,0,0,1-1.76-3.27,9.93,9.93,0,0,1,4.82,1.14,4.15,4.15,0,0,1,.76-2.65,5,5,0,0,1,2.1,1.16"/>
      </g>
    </g>
    <g id="bp-5" data-name="bp">
      <g id="Group_16-5" data-name="Group 16">
        <path id="Path_112-5" data-name="Path 112" class="cls-1" d="M255.27,333.58l-6.33,2.3a7.15,7.15,0,0,1-1.55-6.62,7.3,7.3,0,0,1,2.27-3.61,3.59,3.59,0,0,1-1.78-.67,3.32,3.32,0,0,1-1.16-1.58,3.29,3.29,0,0,1,0-2.43,3.36,3.36,0,0,1,1.64-1.78,2.41,2.41,0,0,1-1.64-1.54,2.47,2.47,0,0,1,.08-1.94,2.54,2.54,0,0,1,3.38-1.24h0a2.5,2.5,0,0,1,1.32,1.44,2.37,2.37,0,0,1-.27,2.23,3.34,3.34,0,0,1,2.4.31,3.39,3.39,0,0,1,1.7,3.8,3.47,3.47,0,0,1-.92,1.65,7.29,7.29,0,0,1,4.06,1.31,7.27,7.27,0,0,1,3.08,6.06l-6.33,2.31"/>
      </g>
    </g>
    <g id="bq-5" data-name="bq">
      <g id="Group_17-5" data-name="Group 17">
        <path id="Path_113-5" data-name="Path 113" class="cls-1" d="M330.43,316.73a1.43,1.43,0,0,1-1.13,0,1.39,1.39,0,0,1-.77-.84,1.43,1.43,0,0,1,.05-1.13,1.47,1.47,0,0,1,1.92-.74l.05,0a1.45,1.45,0,0,1,.77.84,1.47,1.47,0,0,1-.86,1.88h0"/>
        <path id="Path_114-5" data-name="Path 114" class="cls-1" d="M314.32,322.6a1.45,1.45,0,0,1-1.88-.83.14.14,0,0,0,0-.06,1.41,1.41,0,0,1,.05-1.12,1.47,1.47,0,0,1,1.94-.74l0,0a1.48,1.48,0,0,1,.71,2,1.46,1.46,0,0,1-.84.76"/>
        <path id="Path_115-5" data-name="Path 115" class="cls-1" d="M326.26,317a1.44,1.44,0,0,1-1.87-.83.14.14,0,0,1,0-.06,1.47,1.47,0,0,1,.89-1.89,1.49,1.49,0,0,1,1.9.88,1.47,1.47,0,0,1-.9,1.9"/>
        <path id="Path_116-5" data-name="Path 116" class="cls-1" d="M317.67,320.1a1.45,1.45,0,0,1-1.9-.88,1.47,1.47,0,0,1,.89-1.89,1.43,1.43,0,0,1,1.13.05,1.41,1.41,0,0,1,.76.83,1.47,1.47,0,0,1-.86,1.89h0"/>
        <path id="Path_120-5" data-name="Path 120" class="cls-1" d="M321.78,318a1.48,1.48,0,0,1-1-2.78h0a1.47,1.47,0,0,1,1.84,2,1.43,1.43,0,0,1-.83.77"/>
        <path id="Path_117-5" data-name="Path 117" class="cls-1" d="M333,329.41a5.52,5.52,0,0,1-2,1.55,26,26,0,0,1-3.92,1.76A25.31,25.31,0,0,1,323,333.9a5,5,0,0,1-2.49,0l-.25-2.69-.87-1.5-1.47-1.23-3.18-6,.43-.37,4.52,3.7-2-5.64.65-.38,4.19,4.87-1.06-6.49.7-.26,3.35,5.64.06-6.39.75-.14,2.11,5.6,1.09-5.75.56.05,1.45,6.63-.34,1.89.31,1.73,1.56,2.24"/>
      </g>
    </g>
    <g id="br-5" data-name="br">
      <g id="Group_18-5" data-name="Group 18">
        <path id="Path_122-5" data-name="Path 122" class="cls-1" d="M394.85,315.59l1.95-.71-.57-1.57,3.14-1.14,1.57,4.3-1.83,2.88,2,5.48,2.66,1.24.86,2.35,1.75-.63,1,2.74-15.65,5.69-1-2.74,1.75-.64-.85-2.35,1.25-2.66-2-5.48-3.26-1-1.57-4.3,3.13-1.14.57,1.57,2-.72-.57-1.57,3.15-1.14.57,1.57"/>
      </g>
    </g>
    <g id="bb-6" data-name="bb">
      <g id="Group_13-6" data-name="Group 13">
        <path id="Path_89-6" data-name="Path 89" class="cls-1" d="M398.57,403.55a2.54,2.54,0,0,1-.06,1.13,6.41,6.41,0,0,1-.45.81,5.28,5.28,0,0,1-.86.91,3,3,0,0,1-1.31.59l-3.64.78a1.24,1.24,0,0,0-.38.14,1.94,1.94,0,0,1-.3.13,2.82,2.82,0,0,0-.63.37,1.4,1.4,0,0,0-.49.56l-1.91-1.53a1.69,1.69,0,0,1,.27-.49c.09-.11.2-.22.33-.36a5.1,5.1,0,0,1,1.38-1,5.46,5.46,0,0,1,.67-.26,5.24,5.24,0,0,0,.69-.28l1.41-.27,1.42-.31a2.51,2.51,0,0,0,1-.51l.33-.43a2.67,2.67,0,0,0,.38-.8A11.38,11.38,0,0,1,395,403a12.93,12.93,0,0,1-1.34.05l.13-3.65a9.45,9.45,0,0,1-1.67-.4,2.61,2.61,0,0,1-.89-.57,3.54,3.54,0,0,1-.82-.95,5.1,5.1,0,0,1-.42-.92,5,5,0,0,1-.25-1.75,3.87,3.87,0,0,1,.7-2.08c.37-.58.73-1.17,1.07-1.77a15.28,15.28,0,0,0,.94-2,1.65,1.65,0,0,1-1.46-1.16,1.77,1.77,0,0,1,1-2.28h0a1.7,1.7,0,0,1,1.36.07,1.73,1.73,0,0,1,.93,1,1.7,1.7,0,0,1-.37,1.83,13.82,13.82,0,0,0,2,.94q1,.36,2,.66a3.86,3.86,0,0,1,1.85,1.15,5.7,5.7,0,0,1,.95,1.5,6.74,6.74,0,0,1,.26,1,3.69,3.69,0,0,1,0,1.24,3.07,3.07,0,0,1-.34,1,8.44,8.44,0,0,1-1,1.37l2.45,2.72c-.32.26-.68.54-1.09.83a9.3,9.3,0,0,1-1.22.72,2.54,2.54,0,0,0,.8.37,4.69,4.69,0,0,0,.54.11,2.26,2.26,0,0,0,1.05-.22l1.27-.67,1.28-.7a5.39,5.39,0,0,0,.68-.22c.23-.09.46-.17.7-.24a5.3,5.3,0,0,1,1.68-.15l.48.06a2.14,2.14,0,0,1,.53.2l-.5,2.41a1.47,1.47,0,0,0-.75-.11,2.25,2.25,0,0,0-.68.11l-.35.1a1.63,1.63,0,0,0-.37.13l-3.28,1.74a3.07,3.07,0,0,1-1.42.41,3.28,3.28,0,0,1-1.24-.18c-.35-.12-.64-.23-.86-.33a2.3,2.3,0,0,1-.74-.81"/>
      </g>
    </g>
    <g id="bk-6" data-name="bk">
      <g id="Group_14-6" data-name="Group 14">
        <path id="Path_95-6" data-name="Path 95" class="cls-1" d="M319.9,403.79l-1.11-1.93s0,0-.05,0a1.1,1.1,0,0,0-.4-.08,2.88,2.88,0,0,1-.76-.22c-.43-.15-.77-.28-1-.38a4.14,4.14,0,0,1-.69-.37,4.39,4.39,0,0,1-1.58-2,3.53,3.53,0,0,1,.12-2.9,4.14,4.14,0,0,1,2.71-2.32,8.35,8.35,0,0,1,1.86-.27l.76,0h.77a2.5,2.5,0,0,1,.38.06,2.16,2.16,0,0,1-.15-2.13,2.23,2.23,0,0,1,1.27-1.16,2.12,2.12,0,0,1,1.71.08,2.06,2.06,0,0,1,1.15,1.22,4.21,4.21,0,0,1,.12.48,2,2,0,0,1,.24-.27c.29-.27.68-.61,1.16-1a7.35,7.35,0,0,1,1.6-1,4,4,0,0,1,3.56,0,3.65,3.65,0,0,1,2,2.13,4.41,4.41,0,0,1,.05,2.52,5.21,5.21,0,0,1-.3.74l-.51.92a3.51,3.51,0,0,1-.47.67.87.87,0,0,0-.23.31.06.06,0,0,1,0,0v0l.4,2.2,1.72,2.45a6,6,0,0,1-2.2,1.72,29.88,29.88,0,0,1-4.37,1.95,29.36,29.36,0,0,1-4.68,1.33,5.37,5.37,0,0,1-2.77.05l-.24-2.95"/>
        <path id="Path_100-6" data-name="Path 100" class="cls-1" d="M322.41,390l-.8.29-.52-1.44-.93.34a.35.35,0,0,1-.47-.14.25.25,0,0,1,0-.09h0a.35.35,0,0,1,.15-.47l.09,0,.93-.34-.34-.93a.38.38,0,0,1,.16-.5.19.19,0,0,1,.1,0,.37.37,0,0,1,.5.14.38.38,0,0,1,0,.1l.34.93,1-.35a.35.35,0,0,1,.47.14.16.16,0,0,1,0,.09h0a.35.35,0,0,1-.15.47l-.09,0-.94.36.51,1.43"/>
      </g>
    </g>
    <g id="bn-6" data-name="bn">
      <g id="Group_15-6" data-name="Group 15">
        <path id="Path_105-6" data-name="Path 105" class="cls-1" d="M249.83,388a8.89,8.89,0,0,1,3.73-.31,9.31,9.31,0,0,1,3.42,1.12,12.39,12.39,0,0,1,2.23,1.63,13.92,13.92,0,0,1,2.07,2.27,17,17,0,0,1,1.84,3.24c.52,1.17,1,2.27,1.34,3.29l.91,2.5L251,407c-.07,0-.17-.15-.31-.52a5,5,0,0,1-.31-1.8,7.81,7.81,0,0,1,.14-1.44,5.38,5.38,0,0,1,.5-1.39l1-2.22a3.81,3.81,0,0,0,.33-1.63,3.73,3.73,0,0,0-.27-1.55,4.68,4.68,0,0,1-.74.91,7.24,7.24,0,0,0-2.66,3.82,10.76,10.76,0,0,0-.19,1.12,3,3,0,0,1-.18.74,1.08,1.08,0,0,1-.55.48,1.12,1.12,0,0,1-1.24-.25,3,3,0,0,1-.84.43,2.91,2.91,0,0,1-1.13-.17,3.13,3.13,0,0,1-1.21-.89,4.85,4.85,0,0,1-.63-1.19,5,5,0,0,1,.29-3,6.88,6.88,0,0,0,.5-3.32,6.79,6.79,0,0,1-.25-1,2,2,0,0,1,0-.8c0-.19.07-.31.08-.38s.07-.22.11-.33a1.71,1.71,0,0,1,.09-.27c0-.08.07-.17.1-.27a4.35,4.35,0,0,1,.21-.47,8.66,8.66,0,0,1-1.76-3.27,10,10,0,0,1,4.83,1.14,4.09,4.09,0,0,1,.75-2.65,4.94,4.94,0,0,1,2.1,1.16"/>
      </g>
    </g>
    <g id="bp-6" data-name="bp">
      <g id="Group_16-6" data-name="Group 16">
        <path id="Path_112-6" data-name="Path 112" class="cls-1" d="M183.64,405.58l6.34-2.3a7.18,7.18,0,0,0-3.07-6.07,7.32,7.32,0,0,0-4.06-1.31,3.53,3.53,0,0,0,.93-1.65,3.36,3.36,0,0,0-.13-2,3.24,3.24,0,0,0-1.59-1.84,3.34,3.34,0,0,0-2.4-.31,2.39,2.39,0,0,0,.26-2.23,2.49,2.49,0,0,0-1.3-1.44,2.56,2.56,0,0,0-3.39,1.23h0a2.43,2.43,0,0,0-.09,1.94,2.39,2.39,0,0,0,1.64,1.54,3.36,3.36,0,0,0-1.64,1.78,3.4,3.4,0,0,0,1.14,4,3.56,3.56,0,0,0,1.77.67,7.3,7.3,0,0,0-2.27,3.61,6.93,6.93,0,0,0,.19,4.34,7.18,7.18,0,0,0,1.35,2.29l6.33-2.31"/>
      </g>
    </g>
    <g id="bq-6" data-name="bq">
      <g id="Group_17-6" data-name="Group 17">
        <path id="Path_113-6" data-name="Path 113" class="cls-1" d="M98.35,394.6a1.48,1.48,0,0,0,.85-.76,1.46,1.46,0,0,0,0-1.14,1.43,1.43,0,0,0-.77-.83,1.45,1.45,0,0,0-2,.67l0,0a1.44,1.44,0,0,0-.05,1.13,1.45,1.45,0,0,0,1.87.89h0"/>
        <path id="Path_114-6" data-name="Path 114" class="cls-1" d="M114.47,388.73a1.45,1.45,0,0,0,.9-1.84l0-.05a1.48,1.48,0,0,0-2.72-.16l0,0a1.48,1.48,0,0,0,.72,2,1.46,1.46,0,0,0,1.14,0"/>
        <path id="Path_115-6" data-name="Path 115" class="cls-1" d="M101.71,392.1a1.44,1.44,0,0,0,.9-1.83s0,0,0-.06a1.48,1.48,0,0,0-1.9-.88,1.51,1.51,0,0,0-.84.77,1.41,1.41,0,0,0,0,1.12,1.45,1.45,0,0,0,1.91.88"/>
        <path id="Path_116-6" data-name="Path 116" class="cls-1" d="M110.3,389a1.43,1.43,0,0,0,.84-.76,1.42,1.42,0,0,0,0-1.14,1.49,1.49,0,0,0-2.74-.12,1.44,1.44,0,0,0,0,1.13,1.46,1.46,0,0,0,1.87.9h0"/>
        <path id="Path_120-6" data-name="Path 120" class="cls-1" d="M105.82,390a1.48,1.48,0,0,0,.84-.77,1.5,1.5,0,0,0,0-1.14,1.48,1.48,0,0,0-1.88-.89h0a1.43,1.43,0,0,0-.83.77,1.39,1.39,0,0,0-.06,1.13,1.41,1.41,0,0,0,.78.84,1.43,1.43,0,0,0,1.13,0"/>
        <path id="Path_117-6" data-name="Path 117" class="cls-1" d="M104.51,406a5.51,5.51,0,0,0,2.51-.08,26.66,26.66,0,0,0,4.13-1.17,25.26,25.26,0,0,0,4-1.79,5,5,0,0,0,1.94-1.57l-1.54-2.22-.3-1.71.33-1.89-1.44-6.67h-.57l-1.08,5.74-2.11-5.6-.74.13-.08,6.43-3.35-5.66-.71.25,1.06,6.48-4.16-4.86-.66.38,2,5.64-4.53-3.71-.39.4,3.14,6,1.48,1.24.88,1.51.24,2.73"/>
      </g>
    </g>
    <g id="br-6" data-name="br">
      <g id="Group_18-6" data-name="Group 18">
        <path id="Path_122-6" data-name="Path 122" class="cls-1" d="M31.39,388.74l-1.95.71-.58-1.57L25.72,389l1.57,4.3,3.26,1,2,5.48-1.24,2.66.86,2.35-1.76.64,1,2.74,15.65-5.69-1-2.74-1.75.63-.86-2.35-2.67-1.23-2-5.48,1.83-2.89L39,384.17l-3.13,1.14.57,1.57-2,.72L34,386l-3.14,1.15.57,1.57"/>
      </g>
    </g>
  </g>
</svg>
